<?xml version="1.0" encoding="UTF-8"?>
<svg version="1.1" xmlns="http://www.w3.org/2000/svg" width="727" height="727">
<path d="M0 0 C0.87694016 -0.00807175 1.75388031 -0.01614349 2.65739441 -0.02445984 C4.51775119 -0.03831788 6.37813357 -0.04903231 8.23852539 -0.05688477 C11.08333654 -0.07408494 13.92698199 -0.11795311 16.77148438 -0.16210938 C18.57681435 -0.17223699 20.38215423 -0.18075288 22.1875 -0.1875 C23.03866898 -0.20500809 23.88983795 -0.22251617 24.76679993 -0.24055481 C30.67534799 -0.21887432 30.67534799 -0.21887432 33.86206055 2.13989258 C35.29296875 4.23828125 35.29296875 4.23828125 35.29296875 6.23828125 C35.95296875 6.23828125 36.61296875 6.23828125 37.29296875 6.23828125 C39.23828125 8.35546875 39.23828125 8.35546875 41.41796875 11.11328125 C42.14242187 12.01820313 42.866875 12.923125 43.61328125 13.85546875 C45.29296875 16.23828125 45.29296875 16.23828125 45.29296875 18.23828125 C46.28296875 18.56828125 47.27296875 18.89828125 48.29296875 19.23828125 C48.29296875 19.89828125 48.29296875 20.55828125 48.29296875 21.23828125 C49.28296875 21.56828125 50.27296875 21.89828125 51.29296875 22.23828125 C51.29296875 22.89828125 51.29296875 23.55828125 51.29296875 24.23828125 C52.28296875 24.56828125 53.27296875 24.89828125 54.29296875 25.23828125 C54.29296875 25.89828125 54.29296875 26.55828125 54.29296875 27.23828125 C55.15148437 27.5940625 55.15148437 27.5940625 56.02734375 27.95703125 C58.78089795 29.51421363 60.46092509 31.36320922 62.54296875 33.73828125 C63.249375 34.53234375 63.95578125 35.32640625 64.68359375 36.14453125 C66.29296875 38.23828125 66.29296875 38.23828125 66.29296875 40.23828125 C67.77796875 40.73328125 67.77796875 40.73328125 69.29296875 41.23828125 C70.9765625 42.91015625 70.9765625 42.91015625 72.73046875 44.98828125 C73.33890625 45.70757812 73.94734375 46.426875 74.57421875 47.16796875 C75.14140625 47.85117188 75.70859375 48.534375 76.29296875 49.23828125 C77.09734375 50.18703125 77.90171875 51.13578125 78.73046875 52.11328125 C80.29296875 54.23828125 80.29296875 54.23828125 80.29296875 56.23828125 C80.95296875 56.23828125 81.61296875 56.23828125 82.29296875 56.23828125 C83.53063275 57.67664752 84.76214386 59.12116968 85.94921875 60.6015625 C87.9044268 62.98305138 90.08936601 65.08592509 92.29296875 67.23828125 C93.62766055 68.57025473 94.96088561 69.90369889 96.29296875 71.23828125 C96.98132813 71.92535156 97.6696875 72.61242187 98.37890625 73.3203125 C99.90148054 74.84599408 101.41187517 76.3838283 102.91796875 77.92578125 C105.33706265 80.34856103 105.33706265 80.34856103 108.35546875 82.73828125 C111.09629386 85.07089837 113.22789963 87.29952905 115.29296875 90.23828125 C115.29296875 90.89828125 115.29296875 91.55828125 115.29296875 92.23828125 C116.77796875 92.73328125 116.77796875 92.73328125 118.29296875 93.23828125 C118.29296875 93.89828125 118.29296875 94.55828125 118.29296875 95.23828125 C119.28296875 95.56828125 120.27296875 95.89828125 121.29296875 96.23828125 C121.29296875 96.89828125 121.29296875 97.55828125 121.29296875 98.23828125 C122.28296875 98.56828125 123.27296875 98.89828125 124.29296875 99.23828125 C124.60234375 100.04265625 124.91171875 100.84703125 125.23046875 101.67578125 C126.5009374 104.7398527 127.38644091 104.92565577 130.29296875 106.23828125 C130.62296875 107.22828125 130.95296875 108.21828125 131.29296875 109.23828125 C132.28296875 109.56828125 133.27296875 109.89828125 134.29296875 110.23828125 C134.29296875 110.89828125 134.29296875 111.55828125 134.29296875 112.23828125 C134.83308594 112.44066406 135.37320313 112.64304687 135.9296875 112.8515625 C139.25806797 114.80457914 141.57007075 117.57005931 144.10546875 120.42578125 C145.16800111 121.60401086 146.23179672 122.78110255 147.296875 123.95703125 C147.80879395 124.52292969 148.32071289 125.08882813 148.84814453 125.671875 C150.68117453 127.65915456 152.59803208 129.54845996 154.54296875 131.42578125 C157.29296875 134.23828125 157.29296875 134.23828125 157.29296875 136.23828125 C158.28296875 136.56828125 159.27296875 136.89828125 160.29296875 137.23828125 C160.29296875 137.89828125 160.29296875 138.55828125 160.29296875 139.23828125 C160.84984375 139.46515625 161.40671875 139.69203125 161.98046875 139.92578125 C164.91496199 141.59130444 166.91518051 143.86049301 169.29296875 146.23828125 C170.28296875 146.56828125 171.27296875 146.89828125 172.29296875 147.23828125 C172.29296875 147.89828125 172.29296875 148.55828125 172.29296875 149.23828125 C173.61296875 149.56828125 174.93296875 149.89828125 176.29296875 150.23828125 C176.29296875 150.89828125 176.29296875 151.55828125 176.29296875 152.23828125 C190.39074383 155.56301175 202.93065535 157.53747904 216.97265625 153.18359375 C219.96533657 152.33156006 222.21378917 152.03924683 225.29296875 152.23828125 C225.29296875 151.57828125 225.29296875 150.91828125 225.29296875 150.23828125 C226.58210362 149.56673192 227.87437079 148.90119266 229.16796875 148.23828125 C229.88726562 147.86703125 230.6065625 147.49578125 231.34765625 147.11328125 C233.29296875 146.23828125 233.29296875 146.23828125 235.29296875 146.23828125 C235.29296875 145.57828125 235.29296875 144.91828125 235.29296875 144.23828125 C236.9375 142.65234375 236.9375 142.65234375 239.10546875 140.86328125 C241.35547732 139.00261843 243.1964716 137.36955422 244.9296875 135.01171875 C245.37957031 134.42648437 245.82945312 133.84125 246.29296875 133.23828125 C246.95296875 133.23828125 247.61296875 133.23828125 248.29296875 133.23828125 C248.54046875 132.55765625 248.78796875 131.87703125 249.04296875 131.17578125 C250.24273972 128.35631947 251.67149967 125.77607718 253.21484375 123.1328125 C255.5676791 118.9983011 257.75881308 114.80736354 259.29296875 110.30078125 C260.29296875 108.23828125 260.29296875 108.23828125 261.90625 107.46875 C265.38694448 107.13264366 268.25934116 108.3170717 271.48046875 109.48828125 C272.14377197 109.71990967 272.8070752 109.95153809 273.49047852 110.19018555 C274.81469048 110.65265227 276.13756474 111.11896952 277.45898438 111.58935547 C279.87195602 112.44314655 282.29961355 113.24952802 284.73046875 114.05078125 C285.90609375 114.44265625 287.08171875 114.83453125 288.29296875 115.23828125 C288.29296875 115.89828125 288.29296875 116.55828125 288.29296875 117.23828125 C291.26296875 117.56828125 294.23296875 117.89828125 297.29296875 118.23828125 C297.29296875 118.89828125 297.29296875 119.55828125 297.29296875 120.23828125 C299.21109375 120.42390625 299.21109375 120.42390625 301.16796875 120.61328125 C305.04296875 120.98828125 305.04296875 120.98828125 307.29296875 123.23828125 C307.81350613 129.4313413 305.45306404 134.56968927 302.546875 139.87890625 C301.27143973 142.27879067 300.26034696 144.70060073 299.29296875 147.23828125 C298.63296875 147.23828125 297.97296875 147.23828125 297.29296875 147.23828125 C297.18984375 147.96015625 297.08671875 148.68203125 296.98046875 149.42578125 C296.22502928 152.51621546 295.1376556 154.65571966 293.29296875 157.23828125 C292.63296875 157.23828125 291.97296875 157.23828125 291.29296875 157.23828125 C291.29296875 158.22828125 291.29296875 159.21828125 291.29296875 160.23828125 C290.63296875 160.23828125 289.97296875 160.23828125 289.29296875 160.23828125 C289.02484375 161.20765625 288.75671875 162.17703125 288.48046875 163.17578125 C288.08859375 164.18640625 287.69671875 165.19703125 287.29296875 166.23828125 C286.30296875 166.56828125 285.31296875 166.89828125 284.29296875 167.23828125 C283.60676844 168.56166757 282.94510414 169.89778073 282.29296875 171.23828125 C280.7325277 173.37996041 279.08347546 175.26872387 277.29296875 177.23828125 C276.63296875 177.23828125 275.97296875 177.23828125 275.29296875 177.23828125 C274.96296875 178.22828125 274.63296875 179.21828125 274.29296875 180.23828125 C273.63296875 180.23828125 272.97296875 180.23828125 272.29296875 180.23828125 C272.29296875 180.89828125 272.29296875 181.55828125 272.29296875 182.23828125 C267.82238051 186.23828125 267.82238051 186.23828125 265.29296875 186.23828125 C265.29296875 186.89828125 265.29296875 187.55828125 265.29296875 188.23828125 C263.97296875 188.56828125 262.65296875 188.89828125 261.29296875 189.23828125 C261.29296875 189.89828125 261.29296875 190.55828125 261.29296875 191.23828125 C259.64296875 191.56828125 257.99296875 191.89828125 256.29296875 192.23828125 C255.96296875 193.22828125 255.63296875 194.21828125 255.29296875 195.23828125 C252.07634088 198.26160216 248.427069 199.40377068 244.29296875 200.80078125 C239.57355299 202.37106927 239.57355299 202.37106927 235.04296875 204.390625 C233.29296875 205.23828125 233.29296875 205.23828125 230.29296875 205.23828125 C230.29296875 205.89828125 230.29296875 206.55828125 230.29296875 207.23828125 C228.96334803 207.72765554 227.6289745 208.20411706 226.29296875 208.67578125 C225.55046875 208.94261719 224.80796875 209.20945312 224.04296875 209.484375 C216.13524373 211.65225984 207.98109349 211.45586647 199.84155273 211.47851562 C197.7591848 211.48814841 195.67783757 211.51921508 193.59570312 211.55078125 C182.22928083 211.63950521 170.97326948 210.49208636 160.37890625 206.05078125 C157.56592058 204.95508646 154.6896197 204.14922821 151.79296875 203.30078125 C146.62152139 201.73440066 142.01265937 199.8389271 137.29296875 197.23828125 C136.13796875 196.66078125 134.98296875 196.08328125 133.79296875 195.48828125 C132.55546875 194.86953125 132.55546875 194.86953125 131.29296875 194.23828125 C131.29296875 193.57828125 131.29296875 192.91828125 131.29296875 192.23828125 C129.64296875 191.90828125 127.99296875 191.57828125 126.29296875 191.23828125 C126.29296875 190.57828125 126.29296875 189.91828125 126.29296875 189.23828125 C125.720625 189.14417969 125.14828125 189.05007813 124.55859375 188.953125 C121.76964556 188.07316376 120.22019989 186.74012973 118.04296875 184.80078125 C117.3365625 184.18332031 116.63015625 183.56585938 115.90234375 182.9296875 C114.29296875 181.23828125 114.29296875 181.23828125 114.29296875 179.23828125 C113.30296875 178.90828125 112.31296875 178.57828125 111.29296875 178.23828125 C109.81285806 176.60614368 108.40538157 174.90737936 107.04296875 173.17578125 C103.7131234 168.98082903 100.29688456 164.96924833 96.60546875 161.08984375 C95.01412856 158.84491741 94.66433515 156.93997182 94.29296875 154.23828125 C93.30296875 153.90828125 92.31296875 153.57828125 91.29296875 153.23828125 C91.29296875 152.57828125 91.29296875 151.91828125 91.29296875 151.23828125 C90.63296875 151.23828125 89.97296875 151.23828125 89.29296875 151.23828125 C87.6015625 148.9375 87.6015625 148.9375 85.73046875 145.92578125 C85.11042969 144.93964844 84.49039063 143.95351563 83.8515625 142.9375 C82.29296875 140.23828125 82.29296875 140.23828125 81.29296875 137.23828125 C80.63296875 137.23828125 79.97296875 137.23828125 79.29296875 137.23828125 C77.671875 135.59375 77.671875 135.59375 75.85546875 133.42578125 C73.31957543 130.4136486 73.31957543 130.4136486 70.5703125 127.6015625 C69.29296875 126.23828125 69.29296875 126.23828125 69.29296875 124.23828125 C68.63296875 124.23828125 67.97296875 124.23828125 67.29296875 124.23828125 C65.84765625 122.8046875 65.84765625 122.8046875 64.16796875 120.80078125 C63.54921875 120.07375 62.93046875 119.34671875 62.29296875 118.59765625 C61.30296875 117.42976563 61.30296875 117.42976563 60.29296875 116.23828125 C56.79293844 112.23445869 53.30419914 108.24951164 49.54296875 104.48828125 C47.24589177 102.19120427 45.20794022 99.86250141 43.29296875 97.23828125 C43.29296875 96.57828125 43.29296875 95.91828125 43.29296875 95.23828125 C42.63296875 95.23828125 41.97296875 95.23828125 41.29296875 95.23828125 C40.96296875 94.57828125 40.63296875 93.91828125 40.29296875 93.23828125 C40.29573413 93.79727269 40.29849951 94.35626413 40.30134869 94.93219471 C40.36757349 108.52754713 40.41704078 122.12287132 40.44840527 135.71835041 C40.46408143 142.2930075 40.48535545 148.86754844 40.51928711 155.44213867 C40.55181074 161.78337437 40.56980706 168.12449813 40.57760048 174.46581078 C40.58315656 176.88880362 40.59400577 179.31179012 40.61015892 181.73473549 C40.63183986 185.12057507 40.63493955 188.50594822 40.63354492 191.8918457 C40.64433075 192.90029037 40.65511658 193.90873505 40.66622925 194.94773865 C40.66004326 196.32963882 40.66004326 196.32963882 40.6537323 197.73945618 C40.65649768 198.54049428 40.65926306 199.34153238 40.66211224 200.16684437 C40.2002291 202.75868681 39.34754807 203.64207875 37.29296875 205.23828125 C35.35791016 205.60577393 35.35791016 205.60577393 33.14453125 205.59472656 C32.31356934 205.59772766 31.48260742 205.60072876 30.62646484 205.6038208 C29.73266113 205.591474 28.83885742 205.5791272 27.91796875 205.56640625 C26.53665771 205.5635965 26.53665771 205.5635965 25.12744141 205.56072998 C23.18062723 205.55400801 21.23382659 205.54009064 19.28710938 205.51953125 C16.30456002 205.48840223 13.32253939 205.47856258 10.33984375 205.47265625 C8.4492123 205.46348504 6.55858623 205.45310889 4.66796875 205.44140625 C3.77416504 205.43715637 2.88036133 205.43290649 1.95947266 205.42852783 C0.71302979 205.41411652 0.71302979 205.41411652 -0.55859375 205.39941406 C-1.65421631 205.38917206 -1.65421631 205.38917206 -2.77197266 205.37872314 C-4.70703125 205.23828125 -4.70703125 205.23828125 -7.70703125 204.23828125 C-9.5233446 200.60565456 -8.74004346 196.07706146 -8.66796875 192.0625 C-8.62818558 188.32951254 -8.73508916 184.72293139 -9.20285034 181.01747131 C-9.98774716 173.41276933 -9.84661381 165.7817363 -9.83642578 158.14624023 C-9.83778278 156.43212344 -9.83956438 154.71800694 -9.84173584 153.00389099 C-9.84627159 148.37645709 -9.84453738 143.74904562 -9.84135675 139.12161136 C-9.83881685 134.27476363 -9.84117489 129.42791776 -9.84274292 124.58106995 C-9.84455829 116.45337581 -9.84217327 108.32569079 -9.83740234 100.19799805 C-9.83194445 90.79110534 -9.83373596 81.38423426 -9.83922875 71.97734207 C-9.84375827 63.89735969 -9.84441172 55.81738383 -9.84179008 47.73740059 C-9.84022854 42.9124132 -9.84003054 38.08743601 -9.84332657 33.26244926 C-9.8462035 28.73572455 -9.84423294 24.20902795 -9.83843231 19.68230629 C-9.83710446 18.01694663 -9.83749926 16.35158463 -9.83969498 14.68622589 C-9.84240507 12.42310389 -9.83902732 10.16007348 -9.83401489 7.8969574 C-9.83363787 6.62773154 -9.83326084 5.35850569 -9.83287239 4.05081844 C-9.57395711 -1.73591287 -4.6395451 0.0399794 0 0 Z M93.29296875 132.23828125 C94.29296875 134.23828125 94.29296875 134.23828125 94.29296875 134.23828125 Z M96.29296875 138.23828125 C96.62296875 139.22828125 96.95296875 140.21828125 97.29296875 141.23828125 C97.29296875 140.24828125 97.29296875 139.25828125 97.29296875 138.23828125 C96.96296875 138.23828125 96.63296875 138.23828125 96.29296875 138.23828125 Z M98.29296875 141.23828125 C99.29296875 143.23828125 99.29296875 143.23828125 99.29296875 143.23828125 Z M99.29296875 143.23828125 C100.54273631 146.89144796 100.96395628 148.01893961 104.29296875 150.23828125 C104.29296875 149.24828125 104.29296875 148.25828125 104.29296875 147.23828125 C103.63296875 147.23828125 102.97296875 147.23828125 102.29296875 147.23828125 C101.63296875 145.91828125 100.97296875 144.59828125 100.29296875 143.23828125 C99.96296875 143.23828125 99.63296875 143.23828125 99.29296875 143.23828125 Z M104.29296875 150.23828125 C105.84537112 155.20596883 108.80351656 159.41695182 112.29296875 163.23828125 C112.95296875 163.23828125 113.61296875 163.23828125 114.29296875 163.23828125 C114.62296875 164.22828125 114.95296875 165.21828125 115.29296875 166.23828125 C115.95296875 166.23828125 116.61296875 166.23828125 117.29296875 166.23828125 C117.62296875 167.22828125 117.95296875 168.21828125 118.29296875 169.23828125 C118.95296875 169.23828125 119.61296875 169.23828125 120.29296875 169.23828125 C120.62296875 170.22828125 120.95296875 171.21828125 121.29296875 172.23828125 C123.28022618 174.02857959 123.28022618 174.02857959 125.66796875 175.73828125 C128.41327826 177.77714304 130.89198784 179.80993874 133.29296875 182.23828125 C136.53510666 184.53781946 136.53510666 184.53781946 140.29296875 185.23828125 C139.14423255 181.79207264 138.21715233 181.14658929 135.35546875 179.05078125 C134.29005859 178.25607422 134.29005859 178.25607422 133.203125 177.4453125 C131.3877739 176.06021855 131.3877739 176.06021855 129.29296875 176.23828125 C128.96296875 175.24828125 128.63296875 174.25828125 128.29296875 173.23828125 C125.91791657 170.52979202 125.91791657 170.52979202 123.29296875 168.23828125 C122.63296875 168.23828125 121.97296875 168.23828125 121.29296875 168.23828125 C121.29296875 167.57828125 121.29296875 166.91828125 121.29296875 166.23828125 C119.80030153 164.76391946 119.80030153 164.76391946 117.91796875 163.30078125 C115.45395351 161.31841508 114.08830438 159.9312847 112.29296875 157.23828125 C111.63296875 157.23828125 110.97296875 157.23828125 110.29296875 157.23828125 C110.29296875 156.24828125 110.29296875 155.25828125 110.29296875 154.23828125 C107.35060093 152.026599 107.35060093 152.026599 104.29296875 150.23828125 Z M140.29296875 185.23828125 C141.61296875 186.55828125 142.93296875 187.87828125 144.29296875 189.23828125 C144.95296875 188.90828125 145.61296875 188.57828125 146.29296875 188.23828125 C145.96296875 187.57828125 145.63296875 186.91828125 145.29296875 186.23828125 C142.7656364 185.58273006 142.7656364 185.58273006 140.29296875 185.23828125 Z M147.29296875 189.23828125 C147.29296875 189.89828125 147.29296875 190.55828125 147.29296875 191.23828125 C147.95296875 191.23828125 148.61296875 191.23828125 149.29296875 191.23828125 C149.29296875 190.57828125 149.29296875 189.91828125 149.29296875 189.23828125 C148.63296875 189.23828125 147.97296875 189.23828125 147.29296875 189.23828125 Z M153.29296875 192.23828125 C153.62296875 192.89828125 153.95296875 193.55828125 154.29296875 194.23828125 C154.95296875 194.23828125 155.61296875 194.23828125 156.29296875 194.23828125 C156.29296875 193.57828125 156.29296875 192.91828125 156.29296875 192.23828125 C155.30296875 192.23828125 154.31296875 192.23828125 153.29296875 192.23828125 Z " fill="#F8F8F8" transform="translate(219.70703125,193.76171875)"/>
<path d="M0 0 C1.19625 -0.04125 2.3925 -0.0825 3.625 -0.125 C9.08385997 -0.18465967 13.96335908 1.09064914 18 4.875 C19.19182306 7.407624 19.23060465 9.23274425 19 12 C20.65 12.66 22.3 13.32 24 14 C24 14.66 24 15.32 24 16 C24.804375 16.3403125 24.804375 16.3403125 25.625 16.6875 C30.81709138 19.55681366 34.43802374 23.33258283 38 28 C38.5775 28.556875 39.155 29.11375 39.75 29.6875 C41 31 41 31 41 33 C41.66 33 42.32 33 43 33 C44.2890625 34.6796875 44.2890625 34.6796875 45.625 36.875 C46.07101562 37.59429687 46.51703125 38.31359375 46.9765625 39.0546875 C48 41 48 41 48 43 C48.66 43 49.32 43 50 43 C54 48.29411765 54 48.29411765 54 52 C54.66 52 55.32 52 56 52 C58.88751918 56.9629236 61.13336993 61.10647637 60 67 C55.56293676 70.60039908 51.21813796 72.03947971 45.8125 73.4375 C37.58928136 75.70493487 30.14791099 78.77241817 22.625 82.8125 C19.79935763 84.09076679 18.05218597 84.09697581 15 84 C13.82823482 81.87767021 12.66245215 79.75242209 11.5 77.625 C11.16613281 77.02171875 10.83226562 76.4184375 10.48828125 75.796875 C8 71.2265625 8 71.2265625 8 69 C7.01 68.67 6.02 68.34 5 68 C3.64613064 66.34997172 2.31321858 64.6825613 1 63 C0.01 62.34 -0.98 61.68 -2 61 C-2 60.34 -2 59.68 -2 59 C-3.65 58.67 -5.3 58.34 -7 58 C-7 57.34 -7 56.68 -7 56 C-7.99 55.62875 -7.99 55.62875 -9 55.25 C-11.9763711 54.00984538 -14.79391393 52.59894085 -17.64453125 51.09765625 C-25.17715386 47.58742913 -30.84028209 46.5477443 -39.125 46.6875 C-40.08792969 46.68427734 -41.05085938 46.68105469 -42.04296875 46.67773438 C-47.10496571 46.71603009 -51.25304811 47.0600692 -56 49 C-57.0725 49.268125 -58.145 49.53625 -59.25 49.8125 C-63.40078274 51.12691453 -67.02518994 52.94290309 -70.86328125 54.9765625 C-73 56 -73 56 -75 56 C-75 56.66 -75 57.32 -75 58 C-76.5390625 59.48046875 -76.5390625 59.48046875 -78.625 61.1875 C-86.8563122 68.25537585 -90.57858105 74.73574314 -94 85 C-94.66 85 -95.32 85 -96 85 C-95.95875 86.216875 -95.9175 87.43375 -95.875 88.6875 C-95.78579132 91.31915609 -95.97555821 92.93928976 -96.96875 95.40625 C-98.11431071 98.28750875 -98.40202153 100.72796448 -98.625 103.8125 C-98.69976562 104.78832031 -98.77453125 105.76414062 -98.8515625 106.76953125 C-98.90054688 107.50558594 -98.94953125 108.24164063 -99 109 C-101.35546875 109.6171875 -101.35546875 109.6171875 -104 110 C-105.98523347 108.39035124 -107.36672542 106.93299784 -109 105 C-109.6909375 104.25105469 -110.381875 103.50210938 -111.09375 102.73046875 C-117 96.29390405 -117 96.29390405 -117 94 C-117.99 93.67 -118.98 93.34 -120 93 C-121.1233244 89.71643636 -121.24383906 87.61141735 -119.953125 84.375 C-118.69157319 81.88024586 -117.38639349 79.42738791 -116 77 C-115.34 77 -114.68 77 -114 77 C-113.9175 76.484375 -113.835 75.96875 -113.75 75.4375 C-112.67859775 71.95544268 -110.86476395 69.12799115 -109 66 C-109.61875 66.825 -110.2375 67.65 -110.875 68.5 C-111.57625 69.325 -112.2775 70.15 -113 71 C-113.66 71 -114.32 71 -115 71 C-115.10828125 71.56332031 -115.2165625 72.12664062 -115.328125 72.70703125 C-116.10860974 75.37066232 -117.25246215 77.35242165 -118.75 79.6875 C-119.23984375 80.47511719 -119.7296875 81.26273437 -120.234375 82.07421875 C-122 84 -122 84 -124.515625 84.89453125 C-127 85 -127 85 -130 83 C-130 82.34 -130 81.68 -130 81 C-131.485 80.505 -131.485 80.505 -133 80 C-134.60546875 78.44140625 -134.60546875 78.44140625 -136.1875 76.5625 C-136.71730469 75.94503906 -137.24710937 75.32757813 -137.79296875 74.69140625 C-139 73 -139 73 -139 71 C-139.66 71 -140.32 71 -141 71 C-141 70.34 -141 69.68 -141 69 C-142.32 68.34 -143.64 67.68 -145 67 C-145 66.34 -145 65.68 -145 65 C-145.556875 64.773125 -146.11375 64.54625 -146.6875 64.3125 C-149.63246684 62.64103234 -151.68156544 60.44723648 -154 58 C-153.01 55.03 -152.02 52.06 -151 49 C-150.34 49 -149.68 49 -149 49 C-148.88527344 48.41734375 -148.77054687 47.8346875 -148.65234375 47.234375 C-147.95175938 44.83476865 -147.01807405 43.27139067 -145.5625 41.25 C-145.13066406 40.63640625 -144.69882812 40.0228125 -144.25390625 39.390625 C-143.63322266 38.70226562 -143.63322266 38.70226562 -143 38 C-142.34 38 -141.68 38 -141 38 C-140.731875 37.195625 -140.46375 36.39125 -140.1875 35.5625 C-139.795625 34.716875 -139.40375 33.87125 -139 33 C-137.515 32.505 -137.515 32.505 -136 32 C-135.67 31.01 -135.34 30.02 -135 29 C-134.34 29 -133.68 29 -133 29 C-132.773125 28.443125 -132.54625 27.88625 -132.3125 27.3125 C-130.04399551 23.31561114 -127.38100054 20.46033351 -123 19 C-122.67 18.01 -122.34 17.02 -122 16 C-121.34 16 -120.68 16 -120 16 C-120 15.34 -120 14.68 -120 14 C-118.02548675 12.55523421 -116.08540359 11.26581266 -114 10 C-113.38898438 9.62101562 -112.77796875 9.24203125 -112.1484375 8.8515625 C-107.39583333 6 -107.39583333 6 -104 6 C-104 5.34 -104 4.68 -104 4 C-102.02 3.67 -100.04 3.34 -98 3 C-98 2.34 -98 1.68 -98 1 C-66.75154497 -10.44632052 -30.88381916 -15.44190958 0 0 Z M-99 14 C-99.33 14.66 -99.66 15.32 -100 16 C-99.01 16 -98.02 16 -97 16 C-97 15.34 -97 14.68 -97 14 C-97.66 14 -98.32 14 -99 14 Z M-104.125 18 C-104.74375 18.66 -105.3625 19.32 -106 20 C-104.35 19.67 -102.7 19.34 -101 19 C-100.67 18.01 -100.34 17.02 -100 16 C-102.24362573 15.7715451 -102.24362573 15.7715451 -104.125 18 Z M-115 24 C-115 24.66 -115 25.32 -115 26 C-115.5775 26.268125 -116.155 26.53625 -116.75 26.8125 C-119.05550043 28.02929189 -121.02056192 29.30333879 -123 31 C-123 31.66 -123 32.32 -123 33 C-123.66 33 -124.32 33 -125 33 C-130.16689482 38.00329921 -134.94890227 44.06495713 -139 50 C-139 50.66 -139 51.32 -139 52 C-139.66 52 -140.32 52 -141 52 C-140.67 53.32 -140.34 54.64 -140 56 C-139.66226562 55.50628906 -139.32453125 55.01257813 -138.9765625 54.50390625 C-138.30753906 53.54291016 -138.30753906 53.54291016 -137.625 52.5625 C-137.18414062 51.92441406 -136.74328125 51.28632813 -136.2890625 50.62890625 C-135 49 -135 49 -133 48 C-133 47.01 -133 46.02 -133 45 C-132.01 44.67 -131.02 44.34 -130 44 C-126.35986933 40.52064528 -126.35986933 40.52064528 -125 36 C-124.01 35.67 -123.02 35.34 -122 35 C-122 34.34 -122 33.68 -122 33 C-121.4225 32.73960937 -120.845 32.47921875 -120.25 32.2109375 C-117.84310157 30.91555814 -116.03485454 29.44524098 -114 27.625 C-113.3090625 27.00753906 -112.618125 26.39007813 -111.90625 25.75390625 C-109.87974006 23.889351 -107.90725053 21.9867193 -106 20 C-110.0333534 20 -111.83517538 21.60879918 -115 24 Z " fill="#F6F6F6" transform="translate(463,196)"/>
<path d="M0 0 C2.8966677 0.19311118 4.03210237 1.02764371 6.25 2.9375 C8 5 8 5 8 7 C8.66 7 9.32 7 10 7 C11.5859375 8.57421875 11.5859375 8.57421875 13.375 10.6875 C14.31085938 11.78384766 14.31085938 11.78384766 15.265625 12.90234375 C16.58175756 14.49415272 17.86208916 16.1156448 19.125 17.75 C20.9201789 20.07674553 20.9201789 20.07674553 23.3125 21.75 C27.20565936 25.00938924 30.40642521 28.6214355 33 33 C33.17012633 37.42328461 31.60537239 40.45669355 29 44 C28.34 44 27.68 44 27 44 C26.71125 44.5775 26.4225 45.155 26.125 45.75 C25.75375 46.4925 25.3825 47.235 25 48 C24.67 48.721875 24.34 49.44375 24 50.1875 C23 52 23 52 21 53 C20.67 53.99 20.34 54.98 20 56 C19.34 56 18.68 56 18 56 C17.93554688 56.67804688 17.87109375 57.35609375 17.8046875 58.0546875 C16.71107494 62.05752181 14.57805131 64.82415191 12.125 68.125 C11.67769531 68.74503906 11.23039062 69.36507812 10.76953125 70.00390625 C6.31538925 76.11357005 6.31538925 76.11357005 4 78 C2.68 78 1.36 78 0 78 C0 77.34 0 76.68 0 76 C-0.66 76 -1.32 76 -2 76 C-2.04627741 66.38615582 -2.08184573 56.77234979 -2.10362434 47.15841866 C-2.11407534 42.69460245 -2.12825844 38.23086228 -2.15087891 33.76708984 C-2.17256052 29.46179326 -2.1845587 25.15656995 -2.18975449 20.85122299 C-2.19345869 19.20612306 -2.20069177 17.56102727 -2.21146011 15.9159584 C-2.22591299 13.61722296 -2.22798058 11.31879287 -2.22705078 9.02001953 C-2.231492 7.7098587 -2.23593323 6.39969788 -2.24050903 5.04983521 C-2 2 -2 2 0 0 Z " fill="#EDEDED" transform="translate(263,298)"/>
<path d="M0 0 C0.87694016 -0.00807175 1.75388031 -0.01614349 2.65739441 -0.02445984 C4.51775119 -0.03831788 6.37813357 -0.04903231 8.23852539 -0.05688477 C11.08333654 -0.07408494 13.92698199 -0.11795311 16.77148438 -0.16210938 C18.57681435 -0.17223699 20.38215423 -0.18075288 22.1875 -0.1875 C23.03866898 -0.20500809 23.88983795 -0.22251617 24.76679993 -0.24055481 C30.71362044 -0.21873389 30.71362044 -0.21873389 33.86206055 2.26489258 C34.33426025 2.91611084 34.80645996 3.5673291 35.29296875 4.23828125 C34.96296875 4.89828125 34.63296875 5.55828125 34.29296875 6.23828125 C31.65296875 5.24828125 29.01296875 4.25828125 26.29296875 3.23828125 C15.07296875 2.90828125 3.85296875 2.57828125 -7.70703125 2.23828125 C-7.37703125 68.23828125 -7.04703125 134.23828125 -6.70703125 202.23828125 C8.14296875 202.23828125 22.99296875 202.23828125 38.29296875 202.23828125 C38.29296875 165.27828125 38.29296875 128.31828125 38.29296875 90.23828125 C38.95296875 90.23828125 39.61296875 90.23828125 40.29296875 90.23828125 C40.36301702 104.78941979 40.41573698 119.34053223 40.44840527 133.8918047 C40.46388116 140.64806056 40.48498432 147.40421172 40.51928711 154.16040039 C40.5523561 160.67668454 40.56980669 167.19290064 40.57760048 173.70926476 C40.58315689 176.1992432 40.59400671 178.68921547 40.61015892 181.17914772 C40.63183744 184.65838272 40.63493965 188.13716376 40.63354492 191.61645508 C40.64433075 192.65295197 40.65511658 193.68944885 40.66622925 194.75735474 C40.66004326 196.17711861 40.66004326 196.17711861 40.6537323 197.62556458 C40.65649768 198.44872571 40.65926306 199.27188684 40.66211224 200.11999226 C40.20452633 202.74579827 39.37783118 203.62783646 37.29296875 205.23828125 C35.35791016 205.60577393 35.35791016 205.60577393 33.14453125 205.59472656 C32.31356934 205.59772766 31.48260742 205.60072876 30.62646484 205.6038208 C29.73266113 205.591474 28.83885742 205.5791272 27.91796875 205.56640625 C26.53665771 205.5635965 26.53665771 205.5635965 25.12744141 205.56072998 C23.18062723 205.55400801 21.23382659 205.54009064 19.28710938 205.51953125 C16.30456002 205.48840223 13.32253939 205.47856258 10.33984375 205.47265625 C8.4492123 205.46348504 6.55858623 205.45310889 4.66796875 205.44140625 C3.77416504 205.43715637 2.88036133 205.43290649 1.95947266 205.42852783 C0.71302979 205.41411652 0.71302979 205.41411652 -0.55859375 205.39941406 C-1.65421631 205.38917206 -1.65421631 205.38917206 -2.77197266 205.37872314 C-4.70703125 205.23828125 -4.70703125 205.23828125 -7.70703125 204.23828125 C-9.5233446 200.60565456 -8.74004346 196.07706146 -8.66796875 192.0625 C-8.62818558 188.32951254 -8.73508916 184.72293139 -9.20285034 181.01747131 C-9.98774716 173.41276933 -9.84661381 165.7817363 -9.83642578 158.14624023 C-9.83778278 156.43212344 -9.83956438 154.71800694 -9.84173584 153.00389099 C-9.84627159 148.37645709 -9.84453738 143.74904562 -9.84135675 139.12161136 C-9.83881685 134.27476363 -9.84117489 129.42791776 -9.84274292 124.58106995 C-9.84455829 116.45337581 -9.84217327 108.32569079 -9.83740234 100.19799805 C-9.83194445 90.79110534 -9.83373596 81.38423426 -9.83922875 71.97734207 C-9.84375827 63.89735969 -9.84441172 55.81738383 -9.84179008 47.73740059 C-9.84022854 42.9124132 -9.84003054 38.08743601 -9.84332657 33.26244926 C-9.8462035 28.73572455 -9.84423294 24.20902795 -9.83843231 19.68230629 C-9.83710446 18.01694663 -9.83749926 16.35158463 -9.83969498 14.68622589 C-9.84240507 12.42310389 -9.83902732 10.16007348 -9.83401489 7.8969574 C-9.83363787 6.62773154 -9.83326084 5.35850569 -9.83287239 4.05081844 C-9.57395711 -1.73591287 -4.6395451 0.0399794 0 0 Z " fill="#282828" transform="translate(219.70703125,193.76171875)"/>
<path d="M0 0 C11.22 0 22.44 0 34 0 C34 0.33 34 0.66 34 1 C23.11 1 12.22 1 1 1 C1.10858304 22.68169418 1.22077788 44.36336027 1.33933926 66.04500198 C1.39429432 76.11527732 1.44770817 86.18555615 1.49731445 96.25585938 C1.54062483 105.04723177 1.58700947 113.83858205 1.63687855 122.62991977 C1.66310912 127.27202271 1.68794148 131.91412234 1.70907402 136.55625153 C1.80498507 157.39611366 2.13075282 178.17518862 3 199 C16.86 199 30.72 199 45 199 C44.505 178.21 44.505 178.21 44 157 C43.01 163.6 42.02 170.2 41 177 C40.67 177 40.34 177 40 177 C39.77250138 153.51708694 39.77250138 153.51708694 41 143 C41.33 142.67 41.66 142.34 42 142 C43.05383854 135.5072548 43.20989865 129.06746581 43.31640625 122.5 C43.33718735 121.42371338 43.35796844 120.34742676 43.37937927 119.23852539 C43.44437179 115.82574385 43.50352425 112.41289028 43.5625 109 C43.60573313 106.67577403 43.6493489 104.35155513 43.69335938 102.02734375 C43.8000011 96.35163698 43.90185764 90.67585976 44 85 C44.99 85 45.98 85 47 85 C46.67 122.95 46.34 160.9 46 200 C31.15 200 16.3 200 1 200 C-0.08062214 179.32982974 -0.1329757 158.71900577 -0.10139394 138.02702522 C-0.09505514 133.15843983 -0.09454841 128.28985353 -0.09336853 123.42126465 C-0.09028576 114.24223936 -0.08211444 105.06322626 -0.07201904 95.8842063 C-0.0607619 85.41710328 -0.05532349 74.94999962 -0.05032361 64.48289204 C-0.03992854 42.98858641 -0.02162203 21.49429747 0 0 Z " fill="#D2D2D2" transform="translate(212,196)"/>
<path d="M0 0 C7.75 0.75 7.75 0.75 10 3 C10.52053738 9.19306005 8.16009529 14.33140802 5.25390625 19.640625 C3.97847098 22.04050942 2.96737821 24.46231948 2 27 C1.34 27 0.68 27 0 27 C0.99 23.04 1.98 19.08 3 15 C1.68 15.33 0.36 15.66 -1 16 C-1.33 17.98 -1.66 19.96 -2 22 C-2.66 22 -3.32 22 -4 22 C-4.268125 23.093125 -4.53625 24.18625 -4.8125 25.3125 C-6.36505032 30.13357731 -6.36505032 30.13357731 -9 32 C-9.66 32 -10.32 32 -11 32 C-11.0825 32.598125 -11.165 33.19625 -11.25 33.8125 C-12.20455872 36.5966296 -13.57132271 37.43311142 -16 39 C-14.41037341 34.96479403 -12.71767682 30.98188718 -11 27 C-12.65 27.66 -14.3 28.32 -16 29 C-15.67 27.35 -15.34 25.7 -15 24 C-14.34 24 -13.68 24 -13 24 C-12.85304688 23.09507812 -12.85304688 23.09507812 -12.703125 22.171875 C-11.75097332 17.08278841 -10.91066101 14.54403654 -7 11 C-5.73215876 7.86649283 -5.73215876 7.86649283 -5 5 C-4.34 5 -3.68 5 -3 5 C-3 6.98 -3 8.96 -3 11 C-2.01 11 -1.02 11 0 11 C0.66 8.03 1.32 5.06 2 2 C1.34 2 0.68 2 0 2 C0 1.34 0 0.68 0 0 Z " fill="#CFCFCF" transform="translate(517,314)"/>
<path d="M0 0 C0.66 0 1.32 0 2 0 C2.07004827 14.55113854 2.12276823 29.10225098 2.15543652 43.65352345 C2.17091241 50.40977931 2.19201557 57.16593047 2.22631836 63.92211914 C2.25938735 70.43840329 2.27683794 76.95461939 2.28463173 83.47098351 C2.29018814 85.96096195 2.30103796 88.45093422 2.31719017 90.94086647 C2.33886869 94.42010147 2.3419709 97.89888251 2.34057617 101.37817383 C2.351362 102.41467072 2.36214783 103.4511676 2.3732605 104.51907349 C2.36707451 105.93883736 2.36707451 105.93883736 2.36076355 107.38728333 C2.36352893 108.21044446 2.36629431 109.03360559 2.36914349 109.88171101 C1.91155758 112.50751702 1.08486243 113.38955521 -1 115 C-2.93505859 115.36749268 -2.93505859 115.36749268 -5.1484375 115.35644531 C-6.39488037 115.36094696 -6.39488037 115.36094696 -7.66650391 115.36553955 C-8.56030762 115.35319275 -9.45411133 115.34084595 -10.375 115.328125 C-11.75631104 115.32531525 -11.75631104 115.32531525 -13.16552734 115.32244873 C-15.11234152 115.31572676 -17.05914216 115.30180939 -19.00585938 115.28125 C-21.98840873 115.25012098 -24.97042936 115.24028133 -27.953125 115.234375 C-29.84375645 115.22520379 -31.73438252 115.21482764 -33.625 115.203125 C-34.51880371 115.19887512 -35.41260742 115.19462524 -36.33349609 115.19024658 C-37.16445801 115.18063904 -37.99541992 115.17103149 -38.8515625 115.16113281 C-39.58197754 115.15430481 -40.31239258 115.14747681 -41.06494141 115.14044189 C-43 115 -43 115 -46 114 C-47.32411006 111.35177988 -47.01892401 109.51061806 -46.87890625 106.5546875 C-46.80639648 104.94013672 -46.80639648 104.94013672 -46.73242188 103.29296875 C-46.64831055 101.60107422 -46.64831055 101.60107422 -46.5625 99.875 C-46.51029297 98.73933594 -46.45808594 97.60367188 -46.40429688 96.43359375 C-46.27435544 93.62213369 -46.13938086 90.81100535 -46 88 C-45.67 88 -45.34 88 -45 88 C-45 95.92 -45 103.84 -45 112 C-30.15 112 -15.3 112 0 112 C0 75.04 0 38.08 0 0 Z " fill="#3F3F3F" transform="translate(258,284)"/>
<path d="M0 0 C-2.66980881 2.66980881 -5.30836892 3.28393452 -8.875 4.5 C-13.66088657 6.10371146 -13.66088657 6.10371146 -18.2578125 8.15625 C-20 9 -20 9 -23 9 C-23 9.66 -23 10.32 -23 11 C-24.32962072 11.48937429 -25.66399425 11.96583581 -27 12.4375 C-28.11375 12.83775391 -28.11375 12.83775391 -29.25 13.24609375 C-37.15772502 15.41397859 -45.31187526 15.21758522 -53.45141602 15.24023438 C-55.53378395 15.24986716 -57.61513118 15.28093383 -59.69726562 15.3125 C-69.15973695 15.38471658 -77.7875003 14.20640741 -87 12 C-87 11.67 -87 11.34 -87 11 C-83.24683109 10.93415493 -79.77594768 10.87617856 -76.0625 11.46875 C-70.27429971 12.34542003 -64.40443736 12.36808746 -58.5625 12.5625 C-57.35400391 12.60568359 -56.14550781 12.64886719 -54.90039062 12.69335938 C-51.93369394 12.79889404 -48.96692098 12.90100714 -46 13 C-46 12.34 -46 11.68 -46 11 C-45.23816406 10.89042969 -44.47632813 10.78085937 -43.69140625 10.66796875 C-37.91887601 9.78155025 -32.58444429 8.66438114 -27.10546875 6.6484375 C-24.88767708 5.96540704 -22.87187658 5.73663612 -20.5625 5.5625 C-19.386875 5.376875 -18.21125 5.19125 -17 5 C-16.71898437 4.35546875 -16.43796875 3.7109375 -16.1484375 3.046875 C-15 1 -15 1 -12.28515625 0.13671875 C-11.22167969 -0.01152344 -10.15820312 -0.15976562 -9.0625 -0.3125 C-8.00160156 -0.47363281 -6.94070313 -0.63476562 -5.84765625 -0.80078125 C-3 -1 -3 -1 0 0 Z " fill="#E5E5E5" transform="translate(473,390)"/>
<path d="M0 0 C2.8966677 0.19311118 4.03210237 1.02764371 6.25 2.9375 C8 5 8 5 8 7 C8.66 7 9.32 7 10 7 C12.125 8.875 12.125 8.875 14 11 C14 11.66 14 12.32 14 13 C12.35 12.67 10.7 12.34 9 12 C8.67 10.68 8.34 9.36 8 8 C7.360625 7.87625 6.72125 7.7525 6.0625 7.625 C5.381875 7.41875 4.70125 7.2125 4 7 C3.67 6.34 3.34 5.68 3 5 C2.01 4.67 1.02 4.34 0 4 C0 27.43 0 50.86 0 75 C1.65 75 3.3 75 5 75 C4.67 75.99 4.34 76.98 4 78 C2.68 78 1.36 78 0 78 C0 77.34 0 76.68 0 76 C-0.66 76 -1.32 76 -2 76 C-2.04627741 66.38615582 -2.08184573 56.77234979 -2.10362434 47.15841866 C-2.11407534 42.69460245 -2.12825844 38.23086228 -2.15087891 33.76708984 C-2.17256052 29.46179326 -2.1845587 25.15656995 -2.18975449 20.85122299 C-2.19345869 19.20612306 -2.20069177 17.56102727 -2.21146011 15.9159584 C-2.22591299 13.61722296 -2.22798058 11.31879287 -2.22705078 9.02001953 C-2.231492 7.7098587 -2.23593323 6.39969788 -2.24050903 5.04983521 C-2 2 -2 2 0 0 Z " fill="#010101" transform="translate(263,298)"/>
<path d="M0 0 C0.66 0 1.32 0 2 0 C3.2890625 1.6796875 3.2890625 1.6796875 4.625 3.875 C5.07101562 4.59429687 5.51703125 5.31359375 5.9765625 6.0546875 C7 8 7 8 7 10 C7.66 10 8.32 10 9 10 C13 15.29411765 13 15.29411765 13 19 C13.66 19 14.32 19 15 19 C18.04157942 24.22771463 19.50610724 27.92671312 19 34 C17.515 34.495 17.515 34.495 16 35 C15.67 33.02 15.34 31.04 15 29 C14.236875 29.103125 13.47375 29.20625 12.6875 29.3125 C11.800625 29.209375 10.91375 29.10625 10 29 C8.5625 26.9375 8.5625 26.9375 7 24 C6.02212971 22.83522375 5.02015044 21.69043046 4 20.5625 C0.46058154 16.522469 -1.97557029 12.32703448 -3 7 C1.8 10.32307692 1.8 10.32307692 2.8125 13.75 C2.874375 14.4925 2.93625 15.235 3 16 C4.32 16.33 5.64 16.66 7 17 C7 15.02 7 13.04 7 11 C6.34 11 5.68 11 5 11 C4.67 9.35 4.34 7.7 4 6 C3.01 5.67 2.02 5.34 1 5 C0.67 3.35 0.34 1.7 0 0 Z " fill="#B2B2B2" transform="translate(504,229)"/>
<path d="M0 0 C3.3 0 6.6 0 10 0 C10 0.66 10 1.32 10 2 C8.35 2.66 6.7 3.32 5 4 C11.27 4.66 17.54 5.32 24 6 C24 6.66 24 7.32 24 8 C25.98 8.33 27.96 8.66 30 9 C30 9.66 30 10.32 30 11 C24.125 10.125 24.125 10.125 23 9 C19.44475445 8.74657109 15.87570009 8.81476523 12.3125 8.8125 C11.31798828 8.80025391 10.32347656 8.78800781 9.29882812 8.77539062 C4.08963488 8.76499303 -0.10251742 9.02708048 -5 11 C-7.875 11.125 -7.875 11.125 -10 11 C-10 10.34 -10 9.68 -10 9 C-9.34 9 -8.68 9 -8 9 C-8 8.01 -8 7.02 -8 6 C-8.66 6 -9.32 6 -10 6 C-10 5.01 -10 4.02 -10 3 C-6.7 2.67 -3.4 2.34 0 2 C0 1.34 0 0.68 0 0 Z " fill="#DEDEDE" transform="translate(412,234)"/>
<path d="M0 0 C0.99 0.99 0.99 0.99 2 2 C-1.96 1.34 -5.92 0.68 -10 0 C-10 -0.66 -10 -1.32 -10 -2 C-14.95 -2.495 -14.95 -2.495 -20 -3 C-20 -3.66 -20 -4.32 -20 -5 C-24.92553348 -5.02497151 -29.851029 -5.04298678 -34.77661133 -5.05493164 C-36.44751631 -5.05991846 -38.11841702 -5.06671031 -39.78930664 -5.07543945 C-57.11863296 -5.39434305 -57.11863296 -5.39434305 -74 -2 C-76.39432024 -1.26588014 -78.79015212 -0.53667161 -81.1875 0.1875 C-82.97220703 0.73470703 -82.97220703 0.73470703 -84.79296875 1.29296875 C-87.78770397 1.95319661 -89.19811247 2.0915542 -92 1 C-89.00630995 -0.01959009 -86.00472752 -1.01344029 -83 -2 C-82.25363281 -2.25136719 -81.50726563 -2.50273437 -80.73828125 -2.76171875 C-78.17493373 -3.58425301 -75.6017259 -4.30786282 -73 -5 C-71.94167969 -5.28230469 -70.88335937 -5.56460938 -69.79296875 -5.85546875 C-48.11574373 -10.77266676 -20.09990589 -10.8969877 0 0 Z " fill="#575757" transform="translate(461,195)"/>
<path d="M0 0 C0.598125 0.309375 1.19625 0.61875 1.8125 0.9375 C4.08956772 2.10209704 4.08956772 2.10209704 7 3 C7 2.34 7 1.68 7 1 C8.65 1.33 10.3 1.66 12 2 C12 2.66 12 3.32 12 4 C12.62648438 4.09796875 13.25296875 4.1959375 13.8984375 4.296875 C14.71570313 4.44640625 15.53296875 4.5959375 16.375 4.75 C17.18710937 4.88921875 17.99921875 5.0284375 18.8359375 5.171875 C21 6 21 6 21.96875 8 C22.83842939 10.25056769 22.83842939 10.25056769 25.3828125 10.828125 C26.28773438 10.96734375 27.19265625 11.1065625 28.125 11.25 C29.49011719 11.47429687 29.49011719 11.47429687 30.8828125 11.703125 C31.93082031 11.85007812 31.93082031 11.85007812 33 12 C33 12.66 33 13.32 33 14 C33.78375 13.938125 34.5675 13.87625 35.375 13.8125 C40.20013103 14.06207574 44.43656733 15.4848682 49 17 C49 17.33 49 17.66 49 18 C41.40501039 18.26442904 34.42640842 17.60881575 27 16 C27 15.34 27 14.68 27 14 C25.68 14 24.36 14 23 14 C23 13.34 23 12.68 23 12 C22.05125 12.020625 21.1025 12.04125 20.125 12.0625 C17 12 17 12 15 11 C15 10.34 15 9.68 15 9 C12.03 8.505 12.03 8.505 9 8 C9 7.34 9 6.68 9 6 C7.6078125 5.8453125 7.6078125 5.8453125 6.1875 5.6875 C2.97535795 4.99468505 1.88069983 4.6120831 0 2 C0 1.34 0 0.68 0 0 Z M9 4 C9 4.66 9 5.32 9 6 C9.66 6 10.32 6 11 6 C11 5.34 11 4.68 11 4 C10.34 4 9.68 4 9 4 Z M15 7 C15.33 7.66 15.66 8.32 16 9 C16.66 9 17.32 9 18 9 C18 8.34 18 7.68 18 7 C17.01 7 16.02 7 15 7 Z " fill="#4D4D4D" transform="translate(358,379)"/>
<path d="M0 0 C2.18132732 2.93115859 2.50792861 4.13199976 2 7.6875 C3.65 8.3475 5.3 9.0075 7 9.6875 C7 10.3475 7 11.0075 7 11.6875 C7.53625 11.914375 8.0725 12.14125 8.625 12.375 C13.81709138 15.24431366 17.43802374 19.02008283 21 23.6875 C21.98230498 24.7048873 22.97469597 25.71346117 24 26.6875 C23.67 27.3475 23.34 28.0075 23 28.6875 C20.09329709 27.38449525 18.15175051 26.02635925 16 23.6875 C15.525625 23.23375 15.05125 22.78 14.5625 22.3125 C13 20.6875 13 20.6875 11.1875 18.3125 C9.41808638 16.18920365 7.87808375 14.69745974 5.75 13 C4.8425 12.236875 3.935 11.47375 3 10.6875 C3 10.0275 3 9.3675 3 8.6875 C0.525 8.1925 0.525 8.1925 -2 7.6875 C-2 7.0275 -2 6.3675 -2 5.6875 C-2.99 5.3575 -3.98 5.0275 -5 4.6875 C-5 4.0275 -5 3.3675 -5 2.6875 C-7.97 2.1925 -7.97 2.1925 -11 1.6875 C-11 1.0275 -11 0.3675 -11 -0.3125 C-13.97 -0.8075 -13.97 -0.8075 -17 -1.3125 C-17 -1.9725 -17 -2.6325 -17 -3.3125 C-10.41644111 -4.95838972 -5.35157268 -4.12517061 0 0 Z " fill="#353535" transform="translate(480,200.3125)"/>
<path d="M0 0 C0.66 0 1.32 0 2 0 C3.0006709 5.96345767 3.0662997 10.28728907 1 16 C0.34 16 -0.32 16 -1 16 C-1.33 17.65 -1.66 19.3 -2 21 C-1.34 21.33 -0.68 21.66 0 22 C-1.28062485 23.7074998 -2.61767557 25.37373596 -4 27 C-4.66 27 -5.32 27 -6 27 C-6.0825 27.598125 -6.165 28.19625 -6.25 28.8125 C-7.20455872 31.5966296 -8.57132271 32.43311142 -11 34 C-9.41037341 29.96479403 -7.71767682 25.98188718 -6 22 C-7.65 22.66 -9.3 23.32 -11 24 C-10.67 22.35 -10.34 20.7 -10 19 C-9.34 19 -8.68 19 -8 19 C-7.85304688 18.09507812 -7.85304688 18.09507812 -7.703125 17.171875 C-6.75097332 12.08278841 -5.91066101 9.54403654 -2 6 C-0.73215876 2.86649283 -0.73215876 2.86649283 0 0 Z " fill="#D5D5D5" transform="translate(512,319)"/>
<path d="M0 0 C0.66 0 1.32 0 2 0 C2 18.48 2 36.96 2 56 C7.99325186 51.8975021 7.99325186 51.8975021 9 48 C9.66 48 10.32 48 11 48 C11.433125 46.88625 11.433125 46.88625 11.875 45.75 C13.8852459 40.83606557 13.8852459 40.83606557 15 39 C16.485 38.505 16.485 38.505 18 38 C17.48515599 42.98635955 15.17063942 46.30871552 12.375 50.3125 C11.96121094 50.95767578 11.54742187 51.60285156 11.12109375 52.26757812 C10.69699219 52.87666016 10.27289063 53.48574219 9.8359375 54.11328125 C9.46001465 54.66798096 9.0840918 55.22268066 8.69677734 55.79418945 C7 57 7 57 0 57 C0 38.19 0 19.38 0 0 Z " fill="#CECECE" transform="translate(263,316)"/>
<path d="M0 0 C0 0.33 0 0.66 0 1 C-3.96862633 1.90604488 -7.81368029 2.21977061 -11.875 2.4375 C-16.92845733 2.76523468 -21.21215531 3.4387463 -26 5 C-27.32 5 -28.64 5 -30 5 C-30 5.66 -30 6.32 -30 7 C-33.34462118 8.44426824 -36.6896023 9.87425927 -40.06640625 11.2421875 C-41.67322266 11.89574219 -41.67322266 11.89574219 -43.3125 12.5625 C-44.33988281 12.97628906 -45.36726563 13.39007813 -46.42578125 13.81640625 C-49.09439536 14.86302181 -49.09439536 14.86302181 -51 17 C-51.99 17 -52.98 17 -54 17 C-54 16.34 -54 15.68 -54 15 C-54.66 14.67 -55.32 14.34 -56 14 C-55.01 14 -54.02 14 -53 14 C-53 13.34 -53 12.68 -53 12 C-51.02 11.67 -49.04 11.34 -47 11 C-46.67 9.68 -46.34 8.36 -46 7 C-42.535 6.505 -42.535 6.505 -39 6 C-39 5.34 -39 4.68 -39 4 C-25.94813515 1.56118714 -13.31477634 -0.76816017 0 0 Z " fill="#747474" transform="translate(420,195)"/>
<path d="M0 0 C0.99 0 1.98 0 3 0 C3 0.99 3 1.98 3 3 C3.66 3 4.32 3 5 3 C5.18175781 3.98742187 5.36351562 4.97484375 5.55078125 5.9921875 C5.80214844 7.27351563 6.05351562 8.55484375 6.3125 9.875 C6.55613281 11.15117187 6.79976563 12.42734375 7.05078125 13.7421875 C7.69753621 17.26322569 7.69753621 17.26322569 11 19 C11 19.99 11 20.98 11 22 C11.66 22 12.32 22 13 22 C13.6514047 25.09417233 14 27.84846376 14 31 C13.01 30.67 12.02 30.34 11 30 C11 29.01 11 28.02 11 27 C10.360625 26.79375 9.72125 26.5875 9.0625 26.375 C7 25 7 25 6.25 21.875 C6.1675 20.92625 6.085 19.9775 6 19 C5.34 19 4.68 19 4 19 C4 18.34 4 17.68 4 17 C3.34 17 2.68 17 2 17 C1.90912109 16.04287109 1.90912109 16.04287109 1.81640625 15.06640625 C1.73261719 14.24011719 1.64882813 13.41382813 1.5625 12.5625 C1.48128906 11.73878906 1.40007812 10.91507812 1.31640625 10.06640625 C1.21069185 8.01337975 1.21069185 8.01337975 0 7 C-0.04092937 4.66702567 -0.04241723 2.33294775 0 0 Z M9 20 C10 22 10 22 10 22 Z " fill="#AFAFAF" transform="translate(304,306)"/>
<path d="M0 0 C6.05831019 0.61304329 11.36065333 2.44056166 16.81640625 5.046875 C20.12980686 6.49315362 23.47354127 7.23059082 27 8 C27 8.66 27 9.32 27 10 C29.97 10.33 32.94 10.66 36 11 C36 11.66 36 12.32 36 13 C30.39 12.67 24.78 12.34 19 12 C19 11.34 19 10.68 19 10 C18.01 10.33 17.02 10.66 16 11 C14.5 9.625 14.5 9.625 13 8 C13 7.34 13 6.68 13 6 C7.06 5.01 7.06 5.01 1 4 C0.67 5.32 0.34 6.64 0 8 C-0.99 8 -1.98 8 -3 8 C-1.125 1.125 -1.125 1.125 0 0 Z " fill="#CACACA" transform="translate(481,301)"/>
<path d="M0 0 C0.65234375 1.76171875 0.65234375 1.76171875 1 4 C-1.72467212 9.52914635 -6.58907565 13.51967169 -11.23828125 17.3984375 C-13.38170945 19.34700859 -14.68067164 21.4346393 -16 24 C-18 26 -18 26 -20.625 26.125 C-21.40875 26.08375 -22.1925 26.0425 -23 26 C-23.79953138 22.71303767 -24.09658936 21.28976808 -23 18 C-21.68 18 -20.36 18 -19 18 C-19 18.66 -19 19.32 -19 20 C-19.66 20 -20.32 20 -21 20 C-20.67 20.99 -20.34 21.98 -20 23 C-19.66226562 22.4946875 -19.32453125 21.989375 -18.9765625 21.46875 C-18.53054688 20.8190625 -18.08453125 20.169375 -17.625 19.5 C-17.18414062 18.8503125 -16.74328125 18.200625 -16.2890625 17.53125 C-15.86367188 17.0259375 -15.43828125 16.520625 -15 16 C-14.34 16 -13.68 16 -13 16 C-13 15.01 -13 14.02 -13 13 C-11.38161281 11.28641357 -9.70328319 9.6292274 -8 8 C-6.41641948 6.17249387 -4.86965987 4.31937609 -3.33203125 2.453125 C-2 1 -2 1 0 0 Z " fill="#D3D3D3" transform="translate(343,228)"/>
<path d="M0 0 C0.33 0 0.66 0 1 0 C1.06058594 1.02480469 1.12117187 2.04960937 1.18359375 3.10546875 C1.26805026 4.46615695 1.35269567 5.82683343 1.4375 7.1875 C1.47681641 7.86103516 1.51613281 8.53457031 1.55664062 9.22851562 C1.73446871 12.03272771 1.9465683 14.74855668 2.53125 17.5 C3.17576686 20.93742328 3.1054705 24.33112888 3.0625 27.8125 C3.041875 30.184375 3.02125 32.55625 3 35 C8.61 35 14.22 35 20 35 C20 35.99 20 36.98 20 38 C13.4 38 6.8 38 0 38 C0 25.46 0 12.92 0 0 Z " fill="#8E8E8E" transform="translate(218,355)"/>
<path d="M0 0 C0.66 0 1.32 0 2 0 C1.67 1.32 1.34 2.64 1 4 C0.34 4 -0.32 4 -1 4 C-1.2475 4.94875 -1.495 5.8975 -1.75 6.875 C-3.17321469 10.43303673 -3.69106337 10.55234022 -7 12 C-7.27457031 12.62519531 -7.54914063 13.25039063 -7.83203125 13.89453125 C-10.2268445 18.21160262 -15.5500639 19.44226274 -20 21 C-27.331748 22.8910957 -34.38830166 24.18541316 -42 24 C-42 23.67 -42 23.34 -42 23 C-39.43923903 22.32595716 -36.87673417 21.660586 -34.3125 21 C-33.2306543 20.71382813 -33.2306543 20.71382813 -32.12695312 20.421875 C-28.33149039 19.45134572 -24.95384561 18.75044761 -21 19 C-21 18.34 -21 17.68 -21 17 C-19.71086513 16.32845067 -18.41859796 15.66291141 -17.125 15 C-16.40570313 14.62875 -15.68640625 14.2575 -14.9453125 13.875 C-13 13 -13 13 -11 13 C-11 12.34 -11 11.68 -11 11 C-9.35546875 9.4140625 -9.35546875 9.4140625 -7.1875 7.625 C-4.93749143 5.76433718 -3.09649715 4.13127297 -1.36328125 1.7734375 C-0.68845703 0.89558594 -0.68845703 0.89558594 0 0 Z " fill="#CACACA" transform="translate(466,327)"/>
<path d="M0 0 C0 0.66 0 1.32 0 2 C-1.32962072 2.48937429 -2.66399425 2.96583581 -4 3.4375 C-5.11375 3.83775391 -5.11375 3.83775391 -6.25 4.24609375 C-14.15772502 6.41397859 -22.31187526 6.21758522 -30.45141602 6.24023438 C-32.53378395 6.24986716 -34.61513118 6.28093383 -36.69726562 6.3125 C-46.15973695 6.38471658 -54.7875003 5.20640741 -64 3 C-64 2.67 -64 2.34 -64 2 C-60.14549233 1.93237706 -56.61198895 1.90495503 -52.79467773 2.49780273 C-49.09556977 2.98735205 -45.58036442 3.12932158 -41.8515625 3.1328125 C-41.1947348 3.13376923 -40.5379071 3.13472595 -39.86117554 3.13571167 C-38.4813426 3.13638739 -37.10150638 3.13457591 -35.72167969 3.13037109 C-33.63729517 3.1250315 -31.55312779 3.13032797 -29.46875 3.13671875 C-19.38202657 3.14251663 -9.58236214 0 0 0 Z " fill="#797979" transform="translate(450,399)"/>
<path d="M0 0 C0.33 0 0.66 0 1 0 C1.25043278 6.38603578 1.25043278 6.38603578 0.03125 9.375 C-1.10564274 12.26890879 -1.40140212 14.71939594 -1.625 17.8125 C-1.69976562 18.78832031 -1.77453125 19.76414062 -1.8515625 20.76953125 C-1.90054687 21.50558594 -1.94953125 22.24164063 -2 23 C-4.35546875 23.6171875 -4.35546875 23.6171875 -7 24 C-8.98523347 22.39035124 -10.36672542 20.93299784 -12 19 C-12.6909375 18.25105469 -13.381875 17.50210937 -14.09375 16.73046875 C-20 10.29390405 -20 10.29390405 -20 8 C-20.99 7.67 -21.98 7.34 -23 7 C-22.67 6.34 -22.34 5.68 -22 5 C-20.02 5.495 -20.02 5.495 -18 6 C-18 6.66 -18 7.32 -18 8 C-17.34 8 -16.68 8 -16 8 C-15.34 9.65 -14.68 11.3 -14 13 C-13.34 13 -12.68 13 -12 13 C-7 18.47619048 -7 18.47619048 -7 21 C-6.01 21 -5.02 21 -4 21 C-4 17.37 -4 13.74 -4 10 C-3.34 10 -2.68 10 -2 10 C-1.90912109 9.04287109 -1.90912109 9.04287109 -1.81640625 8.06640625 C-1.73261719 7.24011719 -1.64882813 6.41382813 -1.5625 5.5625 C-1.48128906 4.73878906 -1.40007812 3.91507812 -1.31640625 3.06640625 C-1 1 -1 1 0 0 Z " fill="#969696" transform="translate(366,282)"/>
<path d="M0 0 C5.54564614 1.28968515 7.55627686 3.58497033 11 8 C12.175625 8.8971875 12.175625 8.8971875 13.375 9.8125 C17.24419978 13.03683315 20.44585107 16.64513839 23 21 C23.0625 24.5 23.0625 24.5 22 27 C21.34 27.33 20.68 27.66 20 28 C20 25.69 20 23.38 20 21 C19.360625 20.7525 18.72125 20.505 18.0625 20.25 C16 19 16 19 15.25 16.875 C15.1675 16.25625 15.085 15.6375 15 15 C12.03 14.505 12.03 14.505 9 14 C8.67 12.68 8.34 11.36 8 10 C7.4225 9.979375 6.845 9.95875 6.25 9.9375 C2.57066705 8.40444461 1.72716653 5.51601757 0 2 C0 1.34 0 0.68 0 0 Z " fill="#D4D4D4" transform="translate(273,310)"/>
<path d="M0 0 C0.66 0 1.32 0 2 0 C1.8125 1.75 1.8125 1.75 1 4 C0.195625 4.61875 -0.60875 5.2375 -1.4375 5.875 C-4.45675353 8.37877122 -5.06363674 10.25454697 -6 14 C-6.66 14 -7.32 14 -8 14 C-8.18175781 14.66386719 -8.36351562 15.32773437 -8.55078125 16.01171875 C-11.21352852 25.36547198 -11.21352852 25.36547198 -14 29 C-14.66 29 -15.32 29 -16 29 C-16 29.99 -16 30.98 -16 32 C-17.98 32.495 -17.98 32.495 -20 33 C-20.495 35.475 -20.495 35.475 -21 38 C-22.06528748 35.26980214 -22.07998186 34.20701188 -21.00390625 31.421875 C-20.52824219 30.54015625 -20.05257813 29.6584375 -19.5625 28.75 C-19.08941406 27.85796875 -18.61632812 26.9659375 -18.12890625 26.046875 C-17.75636719 25.37140625 -17.38382812 24.6959375 -17 24 C-16.34 24 -15.68 24 -15 24 C-14.9175 23.46375 -14.835 22.9275 -14.75 22.375 C-14 20 -14 20 -11.9375 17.0625 C-9.94694456 13.91613817 -9.57483457 12.61390616 -10 9 C-9.01 8.67 -8.02 8.34 -7 8 C-6.67 7.34 -6.34 6.68 -6 6 C-5.34 6 -4.68 6 -4 6 C-3.67 4.68 -3.34 3.36 -3 2 C-2.01 2 -1.02 2 0 2 C0 1.34 0 0.68 0 0 Z " fill="#3D3D3D" transform="translate(364,249)"/>
<path d="M0 0 C4.26737546 0.47415283 6.14301573 2.99650372 9 6 C9.99 6.66 10.98 7.32 12 8 C11.34 7.01 10.68 6.02 10 5 C10.375 2.8125 10.375 2.8125 11 1 C11.45375 1.969375 11.9075 2.93875 12.375 3.9375 C13.65786221 7.07079582 13.65786221 7.07079582 16 8 C16.625 10.5625 16.625 10.5625 17 13 C17.66 13 18.32 13 19 13 C19.33 15.31 19.66 17.62 20 20 C17.6875 19.375 17.6875 19.375 15 18 C13.3125 15 13.3125 15 12 12 C11.34 11.34 10.68 10.68 10 10 C9.01 10 8.02 10 7 10 C7 9.01 7 8.02 7 7 C6.01 6.67 5.02 6.34 4 6 C0 1.42857143 0 1.42857143 0 0 Z " fill="#D5D5D5" transform="translate(492,227)"/>
<path d="M0 0 C2.31 0.66 4.62 1.32 7 2 C7.33 3.32 7.66 4.64 8 6 C8.99 6 9.98 6 11 6 C11.66 7.98 12.32 9.96 13 12 C14.32 11.67 15.64 11.34 17 11 C18 15.75 18 15.75 18 18 C18.78375 18.2475 19.5675 18.495 20.375 18.75 C23.32317108 20.15389099 23.9024777 21.00675737 25 24 C21.39428893 23.40716913 19.45570562 21.97258223 16.75 19.5625 C16.04359375 18.94503906 15.3371875 18.32757813 14.609375 17.69140625 C13 16 13 16 13 14 C12.01 13.67 11.02 13.34 10 13 C8.39379097 11.24444171 6.85967511 9.42197094 5.375 7.5625 C4.57835937 6.57378906 3.78171875 5.58507812 2.9609375 4.56640625 C1 2 1 2 0 0 Z " fill="#888888" transform="translate(321,359)"/>
<path d="M0 0 C0.99 0 1.98 0 3 0 C2.67 20.46 2.34 40.92 2 62 C1.67 62 1.34 62 1 62 C0.19355239 41.3219112 -0.13951531 20.69334032 0 0 Z " fill="#B1B1B1" transform="translate(256,281)"/>
<path d="M0 0 C2.8966677 0.19311118 4.03210237 1.02764371 6.25 2.9375 C8 5 8 5 8 7 C8.66 7 9.32 7 10 7 C12.125 8.875 12.125 8.875 14 11 C14 11.66 14 12.32 14 13 C12.35 12.67 10.7 12.34 9 12 C8.67 10.68 8.34 9.36 8 8 C7.360625 7.87625 6.72125 7.7525 6.0625 7.625 C5.381875 7.41875 4.70125 7.2125 4 7 C3.67 6.34 3.34 5.68 3 5 C2.01 4.67 1.02 4.34 0 4 C0 12.58 0 21.16 0 30 C-0.33 30 -0.66 30 -1 30 C-1.66660043 22.9411776 -2.11847989 15.90172789 -2.1875 8.8125 C-2.20167969 7.56082031 -2.21585937 6.30914062 -2.23046875 5.01953125 C-2 2 -2 2 0 0 Z " fill="#2E2E2E" transform="translate(263,298)"/>
<path d="M0 0 C40.17062919 -1.12389579 40.17062919 -1.12389579 57 8 C57.66 8.66 58.32 9.32 59 10 C53.06 9.01 53.06 9.01 47 8 C47 7.34 47 6.68 47 6 C43.7 5.67 40.4 5.34 37 5 C37 4.34 37 3.68 37 3 C36.38511719 3.01160156 35.77023437 3.02320313 35.13671875 3.03515625 C34.32847656 3.04417969 33.52023437 3.05320313 32.6875 3.0625 C31.48673828 3.07990234 31.48673828 3.07990234 30.26171875 3.09765625 C28 3 28 3 25 2 C23.08234406 1.85060226 21.16053478 1.75189717 19.23828125 1.68359375 C17.56088867 1.62075195 17.56088867 1.62075195 15.84960938 1.55664062 C14.68236328 1.51732422 13.51511719 1.47800781 12.3125 1.4375 C10.54422852 1.37272461 10.54422852 1.37272461 8.74023438 1.30664062 C5.82694117 1.20048824 2.91356243 1.09843758 0 1 C0 0.67 0 0.34 0 0 Z " fill="#121212" transform="translate(404,187)"/>
<path d="M0 0 C4.93950717 3.2258006 8.53513931 6.57980996 12.31640625 11.09375 C14.10521684 13.21646936 14.10521684 13.21646936 17 15.5 C20.15468591 18.12890493 22.67333731 20.95078803 25.3203125 24.07421875 C26.79049401 25.75979895 28.30582669 27.28683936 29.9375 28.8125 C32 31 32 31 32 34 C29.17696886 31.78735397 26.48188111 29.58978898 24 27 C23.278125 26.319375 22.55625 25.63875 21.8125 24.9375 C20 23 20 23 20 21 C19.01 20.67 18.02 20.34 17 20 C15.65576661 18.34211215 14.32381517 16.67423683 13 15 C11.35360035 13.64172029 9.68704193 12.30745749 8 11 C5.6875 8.875 5.6875 8.875 4 7 C4 6.34 4 5.68 4 5 C3.01 4.67 2.02 4.34 1 4 C0.3125 1.9375 0.3125 1.9375 0 0 Z " fill="#515151" transform="translate(302,252)"/>
<path d="M0 0 C0.33 0.66 0.66 1.32 1 2 C1.99 2.33 2.98 2.66 4 3 C4 3.66 4 4.32 4 5 C4.54011719 5.20238281 5.08023437 5.40476562 5.63671875 5.61328125 C8.96509922 7.56629789 11.277102 10.33177806 13.8125 13.1875 C14.87503236 14.36572961 15.93882797 15.5428213 17.00390625 16.71875 C17.5158252 17.28464844 18.02774414 17.85054688 18.55517578 18.43359375 C20.38820578 20.42087331 22.30506333 22.31017871 24.25 24.1875 C27 27 27 27 27 29 C27.99 29.33 28.98 29.66 30 30 C29.67 30.66 29.34 31.32 29 32 C28.01 31.67 27.02 31.34 26 31 C26 30.34 26 29.68 26 29 C25.34 29 24.68 29 24 29 C23.67 28.01 23.34 27.02 23 26 C21.7625 25.566875 21.7625 25.566875 20.5 25.125 C19.675 24.75375 18.85 24.3825 18 24 C17.1875 21.375 17.1875 21.375 17 19 C15.02 18.34 13.04 17.68 11 17 C10.67 15.02 10.34 13.04 10 11 C9.01 10.67 8.02 10.34 7 10 C4.8125 8.0625 4.8125 8.0625 3 6 C3 5.34 3 4.68 3 4 C2.01 3.67 1.02 3.34 0 3 C0 2.01 0 1.02 0 0 Z " fill="#838383" transform="translate(350,301)"/>
<path d="M0 0 C1.72766602 0.02030273 1.72766602 0.02030273 3.49023438 0.04101562 C6.30648972 0.07607275 9.12173765 0.12521144 11.9375 0.1875 C11.9375 0.8475 11.9375 1.5075 11.9375 2.1875 C13.9175 2.5175 15.8975 2.8475 17.9375 3.1875 C17.9375 3.8475 17.9375 4.5075 17.9375 5.1875 C12.0625 4.3125 12.0625 4.3125 10.9375 3.1875 C7.38225445 2.93407109 3.81320009 3.00226523 0.25 3 C-0.74451172 2.98775391 -1.73902344 2.97550781 -2.76367188 2.96289062 C-7.97286512 2.95249303 -12.16501742 3.21458048 -17.0625 5.1875 C-19.9375 5.3125 -19.9375 5.3125 -22.0625 5.1875 C-22.0625 4.5275 -22.0625 3.8675 -22.0625 3.1875 C-14.53101055 0.14455463 -8.0695553 -0.18159992 0 0 Z " fill="#666666" transform="translate(424.0625,239.8125)"/>
<path d="M0 0 C0.99 0.33 1.98 0.66 3 1 C1.71937515 2.7074998 0.38232443 4.37373596 -1 6 C-1.66 6 -2.32 6 -3 6 C-3.10828125 6.56332031 -3.2165625 7.12664062 -3.328125 7.70703125 C-4.10860974 10.37066232 -5.25246215 12.35242165 -6.75 14.6875 C-7.48476563 15.86892578 -7.48476563 15.86892578 -8.234375 17.07421875 C-10 19 -10 19 -12.515625 19.89453125 C-15 20 -15 20 -18 18 C-18 17.34 -18 16.68 -18 16 C-18.99 15.67 -19.98 15.34 -21 15 C-20.67 14.34 -20.34 13.68 -20 13 C-18.02 13.66 -16.04 14.32 -14 15 C-14 15.66 -14 16.32 -14 17 C-12.68 16.67 -11.36 16.34 -10 16 C-9.67 14.35 -9.34 12.7 -9 11 C-8.34 11 -7.68 11 -7 11 C-6.855625 10.38125 -6.71125 9.7625 -6.5625 9.125 C-6 7 -6 7 -5 5 C-4.34 5 -3.68 5 -3 5 C-2.87625 4.360625 -2.7525 3.72125 -2.625 3.0625 C-2.315625 2.0415625 -2.315625 2.0415625 -2 1 C-1.34 0.67 -0.68 0.34 0 0 Z " fill="#5D5D5D" transform="translate(351,261)"/>
<path d="M0 0 C6.75 2.875 6.75 2.875 9 4 C9 4.66 9 5.32 9 6 C9.53625 6.226875 10.0725 6.45375 10.625 6.6875 C15.81709138 9.55681366 19.43802374 13.33258283 23 18 C23.98230498 19.0173873 24.97469597 20.02596117 26 21 C25.67 21.66 25.34 22.32 25 23 C22.09329709 21.69699525 20.15175051 20.33885925 18 18 C17.525625 17.54625 17.05125 17.0925 16.5625 16.625 C15 15 15 15 13.1875 12.625 C11.41808638 10.50170365 9.87808375 9.00995974 7.75 7.3125 C6.8425 6.549375 5.935 5.78625 5 5 C5 4.34 5 3.68 5 3 C3.35 2.67 1.7 2.34 0 2 C0 1.34 0 0.68 0 0 Z " fill="#6A6A6A" transform="translate(478,206)"/>
<path d="M0 0 C1.32 0 2.64 0 4 0 C3.67 0.99 3.34 1.98 3 3 C2.34 3 1.68 3 1 3 C1 3.66 1 4.32 1 5 C-6.7527507 6.51537186 -14.10042938 7.27990605 -22 7 C-21.67 6.01 -21.34 5.02 -21 4 C-20.23816406 3.93941406 -19.47632813 3.87882812 -18.69140625 3.81640625 C-12.44640026 3.30963298 -6.22331399 2.7260533 0 2 C0 1.34 0 0.68 0 0 Z " fill="#BEBEBE" transform="translate(442,355)"/>
<path d="M0 0 C0.33 0.99 0.66 1.98 1 3 C0.525625 3.433125 0.05125 3.86625 -0.4375 4.3125 C-2.23686957 6.02309613 -2.23686957 6.02309613 -3 9 C-3.66 9 -4.32 9 -5 9 C-5 9.99 -5 10.98 -5 12 C-5.66 12 -6.32 12 -7 12 C-7.268125 12.969375 -7.53625 13.93875 -7.8125 14.9375 C-8.204375 15.948125 -8.59625 16.95875 -9 18 C-9.99 18.33 -10.98 18.66 -12 19 C-13.09166275 20.93330603 -13.09166275 20.93330603 -14 23 C-14.66 23.66 -15.32 24.32 -16 25 C-15.33501617 20.61110675 -13.81242323 17.0188515 -12 13 C-11.34 13 -10.68 13 -10 13 C-10 12.34 -10 11.68 -10 11 C-8.33333333 9.33333333 -6.66666667 7.66666667 -5 6 C-3.70480005 3.83379456 -3.70480005 3.83379456 -3 2 C-2.01 2 -1.02 2 0 2 C0 1.34 0 0.68 0 0 Z " fill="#676767" transform="translate(516,342)"/>
<path d="M0 0 C3.9670255 1.32234183 6.19774087 2.91751495 9 6 C9.49886719 6.43054688 9.99773437 6.86109375 10.51171875 7.3046875 C12.41457843 9.47224944 12.93191374 11.41701703 13.6875 14.1875 C14.06455078 15.53908203 14.06455078 15.53908203 14.44921875 16.91796875 C14.63097656 17.60503906 14.81273437 18.29210937 15 19 C14.01 18.67 13.02 18.34 12 18 C12 17.34 12 16.68 12 16 C11.34 16 10.68 16 10 16 C8.30859375 13.69921875 8.30859375 13.69921875 6.4375 10.6875 C5.81746094 9.70136719 5.19742187 8.71523438 4.55859375 7.69921875 C3 5 3 5 2 2 C1.34 2 0.68 2 0 2 C0 1.34 0 0.68 0 0 Z " fill="#C0C0C0" transform="translate(299,329)"/>
<path d="M0 0 C0 0.66 0 1.32 0 2 C-1.32 2.33 -2.64 2.66 -4 3 C-4 3.66 -4 4.32 -4 5 C-5.390625 6.3671875 -5.390625 6.3671875 -7.25 7.875 C-9.37567351 9.62782352 -11.32400395 11.33300406 -13.25 13.3125 C-15 15 -15 15 -18 16 C-18.66 16.99 -19.32 17.98 -20 19 C-20.66 19 -21.32 19 -22 19 C-20.4411666 15.17377257 -18.04566418 12.74852621 -15 10 C-14.01 9.67 -13.02 9.34 -12 9 C-11.67 8.01 -11.34 7.02 -11 6 C-10.34 6 -9.68 6 -9 6 C-9 5.34 -9 4.68 -9 4 C-3.70588235 0 -3.70588235 0 0 0 Z " fill="#7C7C7C" transform="translate(352,206)"/>
<path d="M0 0 C-2.15454249 2.35716404 -4.19719874 3.78966144 -7.0625 5.1875 C-8.10083984 5.70376953 -8.10083984 5.70376953 -9.16015625 6.23046875 C-11 7 -11 7 -13 7 C-13 7.66 -13 8.32 -13 9 C-14.609375 10.62109375 -14.609375 10.62109375 -16.75 12.4375 C-17.79414063 13.33275391 -17.79414063 13.33275391 -18.859375 14.24609375 C-20.86673589 15.89081098 -22.91070312 17.46126108 -25 19 C-24.34 17.02 -23.68 15.04 -23 13 C-22.34 13 -21.68 13 -21 13 C-21 12.34 -21 11.68 -21 11 C-17.48209624 7.26919717 -13.84044774 4.70839332 -9 3 C-8.67 2.34 -8.34 1.68 -8 1 C-5.07175348 0.02391783 -3.04386724 -0.08226668 0 0 Z " fill="#6D6D6D" transform="translate(401,245)"/>
<path d="M0 0 C0 0.66 0 1.32 0 2 C1.175625 1.9071875 1.175625 1.9071875 2.375 1.8125 C7.20013103 2.06207574 11.43656733 3.4848682 16 5 C16 5.33 16 5.66 16 6 C8.40501039 6.26442904 1.42640842 5.60881575 -6 4 C-6 3.34 -6 2.68 -6 2 C-7.32 2 -8.64 2 -10 2 C-7.79474226 -2.41051548 -4.20111955 -0.70018659 0 0 Z " fill="#777777" transform="translate(391,391)"/>
<path d="M0 0 C1.32 0 2.64 0 4 0 C4.33 1.32 4.66 2.64 5 4 C5.66 4 6.32 4 7 4 C7.33 6.64 7.66 9.28 8 12 C11.3 11.67 14.6 11.34 18 11 C11.625 15.25 11.625 15.25 7 15 C5.82823482 12.87767021 4.66245215 10.75242209 3.5 8.625 C3.16613281 8.02171875 2.83226562 7.4184375 2.48828125 6.796875 C0 2.2265625 0 2.2265625 0 0 Z " fill="#666666" transform="translate(471,265)"/>
<path d="M0 0 C-3.55065236 2.36710158 -7.12567806 3.26553292 -11.1875 4.375 C-17.19248485 6.06338916 -22.49590788 8.02779026 -28 11 C-28.99 11 -29.98 11 -31 11 C-31 10.34 -31 9.68 -31 9 C-29.02 8.67 -27.04 8.34 -25 8 C-25 7.34 -25 6.68 -25 6 C-24.34 6 -23.68 6 -23 6 C-23 5.34 -23 4.68 -23 4 C-16.07 3.01 -16.07 3.01 -9 2 C-9 1.34 -9 0.68 -9 0 C-3.375 -1.125 -3.375 -1.125 0 0 Z " fill="#4D4D4D" transform="translate(520,265)"/>
<path d="M0 0 C-2.66980881 2.66980881 -5.30836892 3.28393452 -8.875 4.5 C-13.6785515 6.10061076 -13.6785515 6.10061076 -18.2578125 8.21875 C-20 9 -20 9 -23 8 C-20 6 -20 6 -17 6 C-16.855625 5.360625 -16.71125 4.72125 -16.5625 4.0625 C-16 2 -16 2 -15 1 C-13.05180421 0.57546778 -11.09062639 0.209675 -9.125 -0.125 C-7.52011719 -0.40730469 -7.52011719 -0.40730469 -5.8828125 -0.6953125 C-3 -1 -3 -1 0 0 Z " fill="#717171" transform="translate(473,390)"/>
<path d="M0 0 C0.66 0.33 1.32 0.66 2 1 C1.01 2.485 1.01 2.485 0 4 C-0.66 4 -1.32 4 -2 4 C-2.33 4.99 -2.66 5.98 -3 7 C-3.66 7 -4.32 7 -5 7 C-5 7.66 -5 8.32 -5 9 C-9.47058824 13 -9.47058824 13 -12 13 C-12 13.66 -12 14.32 -12 15 C-13.32 15.33 -14.64 15.66 -16 16 C-15.1875 13.5625 -15.1875 13.5625 -14 11 C-13.01 10.67 -12.02 10.34 -11 10 C-10.26676204 7.98491642 -10.26676204 7.98491642 -10 6 C-9.34 6 -8.68 6 -8 6 C-7.67 5.34 -7.34 4.68 -7 4 C-4.4375 3.375 -4.4375 3.375 -2 3 C-2 2.34 -2 1.68 -2 1 C-1.34 0.67 -0.68 0.34 0 0 Z " fill="#545454" transform="translate(497,367)"/>
<path d="M0 0 C3.83132316 1.56090944 6.1075134 4.1075134 9 7 C9.99 7.33 10.98 7.66 12 8 C12 8.66 12 9.32 12 10 C13.32 10.33 14.64 10.66 16 11 C16 11.66 16 12.32 16 13 C12.28111761 12.49287967 9.26545761 11.88391785 6 10 C6 9.34 6 8.68 6 8 C5.34 8 4.68 8 4 8 C4 7.34 4 6.68 4 6 C3.01 6 2.02 6 1 6 C0.67 4.02 0.34 2.04 0 0 Z " fill="#707070" transform="translate(380,333)"/>
<path d="M0 0 C2.41907759 2.41907759 2.27524625 3.11190086 2.37890625 6.4296875 C2.41306641 7.30753906 2.44722656 8.18539063 2.48242188 9.08984375 C2.50884766 10.00894531 2.53527344 10.92804688 2.5625 11.875 C2.62266334 13.68502044 2.68633838 15.49492834 2.75390625 17.3046875 C2.77783447 18.10890137 2.8017627 18.91311523 2.82641602 19.74169922 C2.99493288 21.93407757 3.40044304 23.88871379 4 26 C4.66 26 5.32 26 6 26 C6.33 25.34 6.66 24.68 7 24 C7 24.66 7 25.32 7 26 C10.96 26 14.92 26 19 26 C19.33 26.99 19.66 27.98 20 29 C19.34 29 18.68 29 18 29 C18 28.34 18 27.68 18 27 C12.39 27 6.78 27 1 27 C0.67 18.09 0.34 9.18 0 0 Z " fill="#E3E3E3" transform="translate(220,363)"/>
<path d="M0 0 C5.94 0 11.88 0 18 0 C17.67 0.99 17.34 1.98 17 3 C11.06 3 5.12 3 -1 3 C-0.67 2.01 -0.34 1.02 0 0 Z " fill="#686868" transform="translate(240,396)"/>
<path d="M0 0 C2.5 1.375 2.5 1.375 5 4 C5.44908891 7.37080851 5.29036649 10.61884349 5 14 C4.01 14 3.02 14 2 14 C-2.09725159 8.09513742 -2.09725159 8.09513742 -1.8203125 4.9765625 C-1.25 3.0625 -1.25 3.0625 0 0 Z " fill="#C8C8C8" transform="translate(506,247)"/>
<path d="M0 0 C0.66 0.33 1.32 0.66 2 1 C-3.12826289 8.73645157 -3.12826289 8.73645157 -6.6875 9.8125 C-7.450625 9.874375 -8.21375 9.93625 -9 10 C-10.79385992 11.4579186 -10.79385992 11.4579186 -12 13 C-12.99 12.67 -13.98 12.34 -15 12 C-10.20968493 7.61420043 -5.54110713 3.40991208 0 0 Z " fill="#6F6F6F" transform="translate(359,215)"/>
<path d="M0 0 C-1.92710706 10.55808656 -1.92710706 10.55808656 -4 15 C-4.66 14.67 -5.32 14.34 -6 14 C-6 13.34 -6 12.68 -6 12 C-6.66 12 -7.32 12 -8 12 C-7.67 10.35 -7.34 8.7 -7 7 C-6.34 7 -5.68 7 -5 7 C-4.87625 6.030625 -4.7525 5.06125 -4.625 4.0625 C-4.41875 3.051875 -4.2125 2.04125 -4 1 C-2 0 -2 0 0 0 Z " fill="#E0E0E0" transform="translate(520,329)"/>
<path d="M0 0 C1.155 0.28875 2.31 0.5775 3.5 0.875 C10.5781584 2.46559739 17.80157889 3.16975266 25 4 C20.74336131 6.83775913 16.9948333 6.40216049 12 6 C9.3125 5.125 9.3125 5.125 7 4 C4.67251306 3.31320058 2.34013344 2.64238957 0 2 C0 1.34 0 0.68 0 0 Z " fill="#757575" transform="translate(396,346)"/>
<path d="M0 0 C0.33 0 0.66 0 1 0 C1.06058594 0.62648438 1.12117187 1.25296875 1.18359375 1.8984375 C1.26738281 2.71570313 1.35117188 3.53296875 1.4375 4.375 C1.51871094 5.18710937 1.59992188 5.99921875 1.68359375 6.8359375 C1.89090114 9.04272805 1.89090114 9.04272805 3 11 C3.43924559 16.67954768 3.23722343 21.68659435 1 27 C0.67 27 0.34 27 0 27 C0 18.09 0 9.18 0 0 Z " fill="#E9E9E9" transform="translate(213,259)"/>
<path d="M0 0 C0.33 0.66 0.66 1.32 1 2 C0.22265625 3.9453125 0.22265625 3.9453125 -0.9375 6.125 C-1.31777344 6.84945313 -1.69804687 7.57390625 -2.08984375 8.3203125 C-2.39019531 8.87460937 -2.69054687 9.42890625 -3 10 C-3.66 10 -4.32 10 -5 10 C-5 10.99 -5 11.98 -5 13 C-6.32 13.33 -7.64 13.66 -9 14 C-9.33 15.65 -9.66 17.3 -10 19 C-10.99524405 16.36444632 -11.05836489 15.18093117 -10.1796875 12.45703125 C-9.74914062 11.58433594 -9.31859375 10.71164062 -8.875 9.8125 C-8.25238281 8.49185547 -8.25238281 8.49185547 -7.6171875 7.14453125 C-6 5 -6 5 -3.3203125 4.19921875 C-2.55460937 4.13347656 -1.78890625 4.06773437 -1 4 C-0.67 2.68 -0.34 1.36 0 0 Z " fill="#BABABA" transform="translate(353,268)"/>
<path d="M0 0 C4.8 3.32307692 4.8 3.32307692 5.8125 6.75 C5.874375 7.4925 5.93625 8.235 6 9 C6.66 9 7.32 9 8 9 C8.33 9.99 8.66 10.98 9 12 C9.66 12.33 10.32 12.66 11 13 C13.0095568 15.93704456 14 17.39222485 14 21 C13.01 20.67 12.02 20.34 11 20 C10.71125 19.2575 10.4225 18.515 10.125 17.75 C9.13262742 14.81841199 9.13262742 14.81841199 6.5625 12.5625 C2.95056096 8.95056096 0.96394747 5.01252682 0 0 Z " fill="#6E6E6E" transform="translate(501,236)"/>
<path d="M0 0 C0.33 0.99 0.66 1.98 1 3 C-0.36111354 5.29115858 -1.73832778 7.364807 -3.3125 9.5 C-3.93801758 10.37205078 -3.93801758 10.37205078 -4.57617188 11.26171875 C-5.71203498 12.84504308 -6.85569328 14.42276729 -8 16 C-8.66 16.99 -9.32 17.98 -10 19 C-10.66 19 -11.32 19 -12 19 C-11.625 16.5625 -11.625 16.5625 -11 14 C-10.34 13.67 -9.68 13.34 -9 13 C-8.67 12.01 -8.34 11.02 -8 10 C-7.34 10 -6.68 10 -6 10 C-5.71125 9.2575 -5.4225 8.515 -5.125 7.75 C-2.45714286 1.22857143 -2.45714286 1.22857143 0 0 Z " fill="#5D5D5D" transform="translate(280,354)"/>
<path d="M0 0 C1.33333333 0.33333333 2.66666667 0.66666667 4 1 C4.70640625 1.17660156 5.4128125 1.35320312 6.140625 1.53515625 C8.09375 2.0234375 10.046875 2.51171875 12 3 C12 3.66 12 4.32 12 5 C14.97 5.33 17.94 5.66 21 6 C21 6.66 21 7.32 21 8 C17.7 7.67 14.4 7.34 11 7 C11 6.34 11 5.68 11 5 C8.36 4.67 5.72 4.34 3 4 C3 3.34 3 2.68 3 2 C2.01 2 1.02 2 0 2 C0 1.34 0 0.68 0 0 Z " fill="#4B4B4B" transform="translate(496,306)"/>
<path d="M0 0 C0.33 0 0.66 0 1 0 C0.67 2.97 0.34 5.94 0 9 C-0.66 9 -1.32 9 -2 9 C-2.33 10.98 -2.66 12.96 -3 15 C-3.66 15 -4.32 15 -5 15 C-5.33 16.32 -5.66 17.64 -6 19 C-6.66 19 -7.32 19 -8 19 C-7.67 17.35 -7.34 15.7 -7 14 C-6.34 14 -5.68 14 -5 14 C-4.34 10.7 -3.68 7.4 -3 4 C-2.34 4 -1.68 4 -1 4 C-0.67 2.68 -0.34 1.36 0 0 Z " fill="#5C5C5C" transform="translate(518,321)"/>
<path d="M0 0 C0.33 0.99 0.66 1.98 1 3 C-0.21484375 5.26171875 -0.21484375 5.26171875 -1.9375 7.6875 C-2.78634766 8.89986328 -2.78634766 8.89986328 -3.65234375 10.13671875 C-4.09707031 10.75160156 -4.54179687 11.36648438 -5 12 C-6.32 11.01 -7.64 10.02 -9 9 C-8.67 8.01 -8.34 7.02 -8 6 C-7.34 6 -6.68 6 -6 6 C-5.67 5.01 -5.34 4.02 -5 3 C-4.34 3 -3.68 3 -3 3 C-3 2.34 -3 1.68 -3 1 C-2.01 0.67 -1.02 0.34 0 0 Z " fill="#EEEEEE" transform="translate(514,340)"/>
<path d="M0 0 C3.61477175 1.49801352 5.68620463 3.57537417 8.25 6.5 C8.95640625 7.2940625 9.6628125 8.088125 10.390625 8.90625 C12 11 12 11 12 13 C9.875 13 9.875 13 7 12 C3.60753723 8.45333438 0.92127283 4.8805525 0 0 Z " fill="#8D8D8D" transform="translate(274,221)"/>
<path d="M0 0 C7.64860472 0.32547254 16.34579364 1.34579364 22 7 C16.06 6.01 16.06 6.01 10 5 C10 4.34 10 3.68 10 3 C6.7 2.67 3.4 2.34 0 2 C0 1.34 0 0.68 0 0 Z " fill="#4F4F4F" transform="translate(441,190)"/>
<path d="M0 0 C3.3 0 6.6 0 10 0 C10 0.66 10 1.32 10 2 C8.89140625 2.20496094 7.7828125 2.40992188 6.640625 2.62109375 C5.17707133 2.89316462 3.71353033 3.16530362 2.25 3.4375 C1.52039063 3.57220703 0.79078125 3.70691406 0.0390625 3.84570312 C-3.33546675 4.47459267 -6.67634694 5.14322173 -10 6 C-10 5.01 -10 4.02 -10 3 C-6.7 2.67 -3.4 2.34 0 2 C0 1.34 0 0.68 0 0 Z " fill="#A0A0A0" transform="translate(412,234)"/>
<path d="M0 0 C0.66 0 1.32 0 2 0 C2 1.98 2 3.96 2 6 C-0.9826906 7.52448631 -3.818202 8.93940067 -7 10 C-8.21869929 12.50447516 -8.21869929 12.50447516 -9 15 C-9.66 15 -10.32 15 -11 15 C-10.1875 12.5625 -10.1875 12.5625 -9 10 C-8.01 9.67 -7.02 9.34 -6 9 C-5.67 8.175 -5.34 7.35 -5 6.5 C-4.67 5.675 -4.34 4.85 -4 4 C-3.01 3.67 -2.02 3.34 -1 3 C-0.67 2.01 -0.34 1.02 0 0 Z " fill="#6E6E6E" transform="translate(328,225)"/>
<path d="M0 0 C3.63 0 7.26 0 11 0 C11 0.66 11 1.32 11 2 C9.2984375 2.2165625 9.2984375 2.2165625 7.5625 2.4375 C4.19222799 2.61171478 4.19222799 2.61171478 3 4 C2.76924918 5.34747084 2.58846937 6.70377565 2.4375 8.0625 C2.2209375 10.0115625 2.2209375 10.0115625 2 12 C1.34 11.67 0.68 11.34 0 11 C0 7.37 0 3.74 0 0 Z " fill="#878787" transform="translate(217,199)"/>
<path d="M0 0 C2.98945595 4.48418393 2.62259378 8.65341189 3 14 C6.96 14.33 10.92 14.66 15 15 C15 15.33 15 15.66 15 16 C10.05 16 5.1 16 0 16 C0 10.72 0 5.44 0 0 Z " fill="#414141" transform="translate(219,376)"/>
<path d="M0 0 C0.99 0 1.98 0 3 0 C2.44921875 1.890625 2.44921875 1.890625 1 4 C-1.47952676 4.80352258 -3.64319773 5.33209528 -6.1875 5.75 C-8.12689453 6.11351562 -8.12689453 6.11351562 -10.10546875 6.484375 C-13.79356882 6.97266909 -17.28552772 7.09635466 -21 7 C-21 6.67 -21 6.34 -21 6 C-18.43923903 5.32595716 -15.87673417 4.660586 -13.3125 4 C-12.59126953 3.80921875 -11.87003906 3.6184375 -11.12695312 3.421875 C-7.33149039 2.45134572 -3.95384561 1.75044761 0 2 C0 1.34 0 0.68 0 0 Z " fill="#525252" transform="translate(445,344)"/>
<path d="M0 0 C4.86855263 1.62285088 7.44448921 5.66923241 10 10 C10.0625 13.5 10.0625 13.5 9 16 C8.34 16.33 7.68 16.66 7 17 C7 14.69 7 12.38 7 10 C6.401875 9.79375 5.80375 9.5875 5.1875 9.375 C2.1616573 7.47304173 1.35291498 5.24699596 0 2 C0 1.34 0 0.68 0 0 Z " fill="#6A6A6A" transform="translate(286,321)"/>
<path d="M0 0 C1.37400775 3.12274488 0.92162365 4.20900359 -0.3125 7.5 C-1.1478125 9.2325 -1.1478125 9.2325 -2 11 C-2.33 11.7425 -2.66 12.485 -3 13.25 C-4.11640029 15.20370051 -5.27232894 16.56027412 -7 18 C-7.66 18 -8.32 18 -9 18 C-7.67856526 14.36605446 -5.97196609 11.11574546 -4.01953125 7.78125 C-2.56669276 5.24295746 -1.28183951 2.62777099 0 0 Z " fill="#545454" transform="translate(477,309)"/>
<path d="M0 0 C3.4375 0.8125 3.4375 0.8125 7 2 C7.33 2.99 7.66 3.98 8 5 C8.66 5 9.32 5 10 5 C12.125 6.875 12.125 6.875 14 9 C14 9.66 14 10.32 14 11 C12.35 10.67 10.7 10.34 9 10 C8.67 8.68 8.34 7.36 8 6 C7.360625 5.87625 6.72125 5.7525 6.0625 5.625 C5.381875 5.41875 4.70125 5.2125 4 5 C3.67 4.34 3.34 3.68 3 3 C2.01 2.67 1.02 2.34 0 2 C0 1.34 0 0.68 0 0 Z " fill="#828282" transform="translate(263,300)"/>
<path d="M0 0 C-3.75 3 -3.75 3 -6 3 C-6 3.66 -6 4.32 -6 5 C-7.49609375 6.21875 -7.49609375 6.21875 -9.4375 7.5 C-12.22531847 9.2865363 -12.22531847 9.2865363 -14 12 C-14.66 12 -15.32 12 -16 12 C-15.25 9.5625 -15.25 9.5625 -14 7 C-11.9375 6.375 -11.9375 6.375 -10 6 C-9.67 5.01 -9.34 4.02 -9 3 C-8.34 3 -7.68 3 -7 3 C-6.67 2.01 -6.34 1.02 -6 0 C-3 -1 -3 -1 0 0 Z " fill="#575757" transform="translate(354,217)"/>
<path d="M0 0 C1.65 0.33 3.3 0.66 5 1 C2.24865461 3.95514876 -0.39733775 6.1524809 -4 8 C-4.99 8 -5.98 8 -7 8 C-7 7.34 -7 6.68 -7 6 C-7.66 5.67 -8.32 5.34 -9 5 C-8.01 5 -7.02 5 -6 5 C-6 4.34 -6 3.68 -6 3 C-4.02 2.67 -2.04 2.34 0 2 C0 1.34 0 0.68 0 0 Z " fill="#2C2C2C" transform="translate(373,204)"/>
<path d="M0 0 C0.74507812 0.01353516 1.49015625 0.02707031 2.2578125 0.04101562 C4.08885416 0.07622796 5.91952169 0.13003149 7.75 0.1875 C7.75 1.1775 7.75 2.1675 7.75 3.1875 C1.15 3.1875 -5.45 3.1875 -12.25 3.1875 C-7.75756181 -0.18182864 -5.29947734 -0.18257917 0 0 Z " fill="#A5A5A5" transform="translate(230.25,389.8125)"/>
<path d="M0 0 C0.66 0 1.32 0 2 0 C2 3.96 2 7.92 2 12 C3.65 12 5.3 12 7 12 C6.67 12.99 6.34 13.98 6 15 C4.68 15 3.36 15 2 15 C2 14.34 2 13.68 2 13 C1.34 13 0.68 13 0 13 C0 8.71 0 4.42 0 0 Z " fill="#212121" transform="translate(261,361)"/>
<path d="M0 0 C3.36016893 1.12005631 4.69064913 2.37211797 7 5 C7 5.66 7 6.32 7 7 C8.32 7.66 9.64 8.32 11 9 C8 10 8 10 4.9375 8.75 C2 7 2 7 0 4 C0 2.68 0 1.36 0 0 Z " fill="#535353" transform="translate(337,362)"/>
<path d="M0 0 C6.89694467 2.08998323 11.82521417 7.32229127 16 13 C15.67 13.66 15.34 14.32 15 15 C12.17696886 12.78735397 9.48188111 10.58978898 7 8 C6.278125 7.319375 5.55625 6.63875 4.8125 5.9375 C3 4 3 4 3 2 C2.01 1.67 1.02 1.34 0 1 C0 0.67 0 0.34 0 0 Z " fill="#626262" transform="translate(319,271)"/>
<path d="M0 0 C1.32 0.33 2.64 0.66 4 1 C4 1.99 4 2.98 4 4 C4.66 4 5.32 4 6 4 C6.6514047 7.09417233 7 9.84846376 7 13 C6.01 12.67 5.02 12.34 4 12 C4 11.01 4 10.02 4 9 C3.34 9 2.68 9 2 9 C1.855625 7.88625 1.71125 6.7725 1.5625 5.625 C1.21627965 2.17857953 1.21627965 2.17857953 0 0 Z M2 2 C3 4 3 4 3 4 Z " fill="#272727" transform="translate(311,324)"/>
<path d="M0 0 C6.75 0.75 6.75 0.75 9 3 C9.08203125 5.05859375 9.08203125 5.05859375 8.8125 7.4375 C8.73644531 8.21996094 8.66039062 9.00242187 8.58203125 9.80859375 C8 12 8 12 5 15 C5.66 11.04 6.32 7.08 7 3 C5.35 2.67 3.7 2.34 2 2 C1.34 1.34 0.68 0.68 0 0 Z " fill="#565656" transform="translate(518,314)"/>
<path d="M0 0 C2.25 0.26953125 2.25 0.26953125 5 0.8125 C6.36125 1.06966797 6.36125 1.06966797 7.75 1.33203125 C8.4925 1.55246094 9.235 1.77289063 10 2 C10.33 2.66 10.66 3.32 11 4 C7.37 3.67 3.74 3.34 0 3 C-0.33 4.65 -0.66 6.3 -1 8 C-1.66 8 -2.32 8 -3 8 C-1.125 1.125 -1.125 1.125 0 0 Z " fill="#3A3A3A" transform="translate(481,301)"/>
<path d="M0 0 C0.33 0.66 0.66 1.32 1 2 C1.66 2.33 2.32 2.66 3 3 C1.71937515 4.7074998 0.38232443 6.37373596 -1 8 C-1.66 8 -2.32 8 -3 8 C-3.0825 8.598125 -3.165 9.19625 -3.25 9.8125 C-4.20455872 12.5966296 -5.57132271 13.43311142 -8 15 C-6.55049545 11.2089881 -4.84827434 7.6125362 -3 4 C-2.34 4 -1.68 4 -1 4 C-0.67 2.68 -0.34 1.36 0 0 Z " fill="#9E9E9E" transform="translate(509,338)"/>
<path d="M0 0 C0.66 0 1.32 0 2 0 C1.67 1.98 1.34 3.96 1 6 C0.34 6 -0.32 6 -1 6 C-1.33 7.65 -1.66 9.3 -2 11 C-2.66 11 -3.32 11 -4 11 C-4.66 12.65 -5.32 14.3 -6 16 C-7.28432364 12.14702908 -6.58019149 10.68711349 -5 7 C-3.70644173 5.62804426 -2.37701298 4.28817344 -1 3 C-0.67 2.01 -0.34 1.02 0 0 Z " fill="#666666" transform="translate(511,322)"/>
<path d="M0 0 C1.65 0 3.3 0 5 0 C6.33332095 2.6666419 5.67102033 4.16680303 5 7 C4.34 7 3.68 7 3 7 C3 7.99 3 8.98 3 10 C2.34 10 1.68 10 1 10 C0.67 6.7 0.34 3.4 0 0 Z " fill="#F1F1F1" transform="translate(519,318)"/>
<path d="M0 0 C2.31 0.33 4.62 0.66 7 1 C7 1.66 7 2.32 7 3 C8.65 3.33 10.3 3.66 12 4 C12 4.66 12 5.32 12 6 C13.32 6.33 14.64 6.66 16 7 C16 7.66 16 8.32 16 9 C16.66 9.33 17.32 9.66 18 10 C15.525 9.505 15.525 9.505 13 9 C13 8.34 13 7.68 13 7 C12.34 6.7525 11.68 6.505 11 6.25 C7.23639093 4.68182955 3.6288576 2.85494954 0 1 C0 0.67 0 0.34 0 0 Z " fill="#3A3A3A" transform="translate(443,245)"/>
<path d="M0 0 C0.66 0 1.32 0 2 0 C1.67 2.31 1.34 4.62 1 7 C0.01 7.33 -0.98 7.66 -2 8 C-3.09166275 9.93330603 -3.09166275 9.93330603 -4 12 C-4.66 12.66 -5.32 13.32 -6 14 C-5.33501617 9.61110675 -3.81242323 6.0188515 -2 2 C-1.34 2 -0.68 2 0 2 C0 1.34 0 0.68 0 0 Z " fill="#808080" transform="translate(506,353)"/>
<path d="M0 0 C2.475 0.495 2.475 0.495 5 1 C5 1.66 5 2.32 5 3 C5.99 3.33 6.98 3.66 8 4 C10.25 6.375 10.25 6.375 12 9 C11.67 9.99 11.34 10.98 11 12 C9.29115995 10.37660195 7.62553283 8.70680947 6 7 C6 6.34 6 5.68 6 5 C5.34 5 4.68 5 4 5 C4 4.34 4 3.68 4 3 C2.68 2.34 1.36 1.68 0 1 C0 0.67 0 0.34 0 0 Z " fill="#787878" transform="translate(318,262)"/>
<path d="M0 0 C0.66 0 1.32 0 2 0 C2.33 0.66 2.66 1.32 3 2 C5.52733235 2.65555119 5.52733235 2.65555119 8 3 C8 3.66 8 4.32 8 5 C8.66 5.33 9.32 5.66 10 6 C8.20793453 5.85915204 6.41635083 5.71216299 4.625 5.5625 C3.62726563 5.48128906 2.62953125 5.40007812 1.6015625 5.31640625 C-1 5 -1 5 -3 4 C-3 3.34 -3 2.68 -3 2 C-2.01 2 -1.02 2 0 2 C0 1.34 0 0.68 0 0 Z " fill="#515151" transform="translate(376,386)"/>
<path d="M0 0 C2.475 0.495 2.475 0.495 5 1 C5 1.66 5 2.32 5 3 C5.66 3 6.32 3 7 3 C7.66 4.65 8.32 6.3 9 8 C9.66 8 10.32 8 11 8 C10.67 8.66 10.34 9.32 10 10 C6.30379783 8.05463044 4.74666289 6.74284906 3 3 C2.01 2.67 1.02 2.34 0 2 C0 1.34 0 0.68 0 0 Z " fill="#868686" transform="translate(343,287)"/>
<path d="M0 0 C1.32 0 2.64 0 4 0 C4 1.65 4 3.3 4 5 C7.465 4.505 7.465 4.505 11 4 C11 4.66 11 5.32 11 6 C9.56589632 6.24954005 8.12739928 6.47392642 6.6875 6.6875 C5.88699219 6.81511719 5.08648437 6.94273437 4.26171875 7.07421875 C2 7 2 7 0.1875 5.65625 C-1 4 -1 4 -0.6875 1.8125 C-0.460625 1.214375 -0.23375 0.61625 0 0 Z " fill="#CCCCCC" transform="translate(391,239)"/>
<path d="M0 0 C2.31 0.66 4.62 1.32 7 2 C7.33 3.32 7.66 4.64 8 6 C8.99 6 9.98 6 11 6 C11 6.99 11 7.98 11 9 C6.69932292 8.09985829 4.6115108 6.90171303 2.125 3.375 C1.42375 2.26125 0.7225 1.1475 0 0 Z " fill="#999999" transform="translate(321,359)"/>
<path d="M0 0 C0.99 0.33 1.98 0.66 3 1 C2.67 1.66 2.34 2.32 2 3 C1.34 3 0.68 3 0 3 C-0.28875 3.7425 -0.5775 4.485 -0.875 5.25 C-2.8852459 10.16393443 -2.8852459 10.16393443 -4 12 C-4.99 12.33 -5.98 12.66 -7 13 C-6.36610765 9.50155614 -4.94822306 7.15913124 -2.9375 4.25 C-2.38964844 3.45078125 -1.84179688 2.6515625 -1.27734375 1.828125 C-0.85582031 1.22484375 -0.43429687 0.6215625 0 0 Z " fill="#606060" transform="translate(356,260)"/>
<path d="M0 0 C0.6875 1.75 0.6875 1.75 1 4 C-0.375 6 -0.375 6 -2 8 C-2.70514846 10.14733927 -2.70514846 10.14733927 -3 12 C-3.66 12 -4.32 12 -5 12 C-5.33 12.99 -5.66 13.98 -6 15 C-6 11.09567131 -5.31626692 8.61973402 -4 5 C-3.34 5 -2.68 5 -2 5 C-1.855625 4.360625 -1.71125 3.72125 -1.5625 3.0625 C-1 1 -1 1 0 0 Z " fill="#565656" transform="translate(316,240)"/>
<path d="M0 0 C2.96404505 2.80804268 5.44499019 5.18315774 7 9 C7.66 9 8.32 9 9 9 C9 9.66 9 10.32 9 11 C7.35 10.67 5.7 10.34 4 10 C4 8.68 4 7.36 4 6 C3.01 5.67 2.02 5.34 1 5 C0.67 3.35 0.34 1.7 0 0 Z " fill="#7B7B7B" transform="translate(293,241)"/>
<path d="M0 0 C0.66 0.33 1.32 0.66 2 1 C1.01 2.485 1.01 2.485 0 4 C-0.66 4 -1.32 4 -2 4 C-2 4.66 -2 5.32 -2 6 C-3.98 6.33 -5.96 6.66 -8 7 C-8.33 7.99 -8.66 8.98 -9 10 C-9.33 8.68 -9.66 7.36 -10 6 C-9.34 6 -8.68 6 -8 6 C-7.67 5.34 -7.34 4.68 -7 4 C-4.4375 3.375 -4.4375 3.375 -2 3 C-2 2.34 -2 1.68 -2 1 C-1.34 0.67 -0.68 0.34 0 0 Z " fill="#989898" transform="translate(497,367)"/>
<path d="M0 0 C1.32 0 2.64 0 4 0 C4 0.66 4 1.32 4 2 C3.34 2 2.68 2 2 2 C2.33 2.99 2.66 3.98 3 5 C3.66 4.67 4.32 4.34 5 4 C4.67 5.32 4.34 6.64 4 8 C2.35 7.67 0.7 7.34 -1 7 C-0.67 4.69 -0.34 2.38 0 0 Z " fill="#4B4B4B" transform="translate(320,246)"/>
<path d="M0 0 C0 3.92165239 -1.25271215 4.73024249 -3.875 7.5625 C-4.59429687 8.34753906 -5.31359375 9.13257813 -6.0546875 9.94140625 C-7.35054115 11.31272126 -8.66588202 12.66588202 -10 14 C-9.79995725 9.69908088 -9.33839587 8.31632657 -6.125 5.3125 C-5.09375 4.549375 -4.0625 3.78625 -3 3 C-1.98319689 2.01709032 -0.97261781 1.02665213 0 0 Z " fill="#353535" transform="translate(334,232)"/>
<path d="M0 0 C4.62 0 9.24 0 14 0 C13.67 1.32 13.34 2.64 13 4 C12.34 4 11.68 4 11 4 C11 3.34 11 2.68 11 2 C7.37 2 3.74 2 0 2 C0 1.34 0 0.68 0 0 Z " fill="#EFEFEF" transform="translate(217,197)"/>
<path d="M0 0 C0 0.66 0 1.32 0 2 C-5.10334017 3.905247 -9.46342706 5.42589023 -15 5 C-14 3 -14 3 -11.85546875 2.1484375 C-10.97503906 1.89320313 -10.09460938 1.63796875 -9.1875 1.375 C-8.31480469 1.11460937 -7.44210937 0.85421875 -6.54296875 0.5859375 C-4 0 -4 0 0 0 Z " fill="#454545" transform="translate(450,399)"/>
<path d="M0 0 C0.33 0.66 0.66 1.32 1 2 C1.99 2.33 2.98 2.66 4 3 C4 3.66 4 4.32 4 5 C4.556875 5.20625 5.11375 5.4125 5.6875 5.625 C8.92501302 7.55000774 10.68231141 10.03850902 13 13 C12.01 13 11.02 13 10 13 C10 12.34 10 11.68 10 11 C9.01 10.67 8.02 10.34 7 10 C4.8125 8.0625 4.8125 8.0625 3 6 C3 5.34 3 4.68 3 4 C2.01 3.67 1.02 3.34 0 3 C0 2.01 0 1.02 0 0 Z " fill="#3B3B3B" transform="translate(350,301)"/>
<path d="M0 0 C0.66 0 1.32 0 2 0 C3.2890625 1.6796875 3.2890625 1.6796875 4.625 3.875 C5.29402344 4.95394531 5.29402344 4.95394531 5.9765625 6.0546875 C7 8 7 8 7 10 C7.66 10 8.32 10 9 10 C9 10.66 9 11.32 9 12 C7.68 11.67 6.36 11.34 5 11 C4.67 9.35 4.34 7.7 4 6 C3.01 5.67 2.02 5.34 1 5 C0.67 3.35 0.34 1.7 0 0 Z " fill="#515151" transform="translate(504,229)"/>
<path d="M0 0 C4.16138263 -0.08159574 7.9472484 0.01751476 12 1 C12.33 2.32 12.66 3.64 13 5 C11.01853549 4.55170486 9.03985789 4.09107502 7.0625 3.625 C5.96035156 3.36976563 4.85820312 3.11453125 3.72265625 2.8515625 C2.82417969 2.57054687 1.92570312 2.28953125 1 2 C0.67 1.34 0.34 0.68 0 0 Z " fill="#646464" transform="translate(372,396)"/>
<path d="M0 0 C3.31234384 1.16379648 5.8898219 2.11238786 8 5 C8 6.32 8 7.64 8 9 C6 9 6 9 4.4921875 7.5390625 C3.95851563 6.90742188 3.42484375 6.27578125 2.875 5.625 C2.06675781 4.68527344 2.06675781 4.68527344 1.2421875 3.7265625 C0 2 0 2 0 0 Z " fill="#636363" transform="translate(351,296)"/>
<path d="M0 0 C2.475 0.495 2.475 0.495 5 1 C5 1.66 5 2.32 5 3 C5.66 3 6.32 3 7 3 C7.33 4.32 7.66 5.64 8 7 C7.01 7.495 7.01 7.495 6 8 C4.5 6.625 4.5 6.625 3 5 C3 4.34 3 3.68 3 3 C2.34 3 1.68 3 1 3 C0.67 2.01 0.34 1.02 0 0 Z " fill="#868686" transform="translate(260,286)"/>
<path d="M0 0 C0.99 0.33 1.98 0.66 3 1 C1.71937515 2.7074998 0.38232443 4.37373596 -1 6 C-1.66 6 -2.32 6 -3 6 C-3 6.99 -3 7.98 -3 9 C-4.32 9.33 -5.64 9.66 -7 10 C-6.34 8.35 -5.68 6.7 -5 5 C-4.34 5 -3.68 5 -3 5 C-2.814375 4.0409375 -2.814375 4.0409375 -2.625 3.0625 C-2.41875 2.381875 -2.2125 1.70125 -2 1 C-1.34 0.67 -0.68 0.34 0 0 Z " fill="#707070" transform="translate(351,261)"/>
<path d="M0 0 C4.25742137 0.47304682 6.25705098 2.8863822 9 6 C9.33 6.99 9.66 7.98 10 9 C9.34 9.66 8.68 10.32 8 11 C7.896875 10.360625 7.79375 9.72125 7.6875 9.0625 C7.460625 8.381875 7.23375 7.70125 7 7 C6.01 6.67 5.02 6.34 4 6 C0 1.42857143 0 1.42857143 0 0 Z " fill="#A9A9A9" transform="translate(492,227)"/>
<path d="M0 0 C0.99 0.33 1.98 0.66 3 1 C3 1.66 3 2.32 3 3 C3.99 3.33 4.98 3.66 6 4 C6 4.66 6 5.32 6 6 C6.99 6.33 7.98 6.66 9 7 C9 7.66 9 8.32 9 9 C5.6885981 8.42906864 4.24945577 7.45395174 2 5 C1.34 4.67 0.68 4.34 0 4 C0 2.68 0 1.36 0 0 Z " fill="#6C6C6C" transform="translate(265,212)"/>
<path d="M0 0 C0.66 0 1.32 0 2 0 C3.43581474 1.61457079 4.80144783 3.29219075 6.125 5 C6.84945313 5.928125 7.57390625 6.85625 8.3203125 7.8125 C8.87460937 8.534375 9.42890625 9.25625 10 10 C9.67 10.66 9.34 11.32 9 12 C5.51061833 9.4948029 3.86800777 8.19537087 3 4 C2.01 3.67 1.02 3.34 0 3 C0 2.01 0 1.02 0 0 Z " fill="#4B4B4B" transform="translate(255,200)"/>
<path d="M0 0 C0.66 0 1.32 0 2 0 C1.67 1.32 1.34 2.64 1 4 C0.34 4 -0.32 4 -1 4 C-1.33 4.99 -1.66 5.98 -2 7 C-2.66 7 -3.32 7 -4 7 C-4.33 7.99 -4.66 8.98 -5 10 C-5.99 9.67 -6.98 9.34 -8 9 C-6.71520959 7.49410612 -5.42195918 5.99542625 -4.125 4.5 C-3.04605469 3.24703125 -3.04605469 3.24703125 -1.9453125 1.96875 C-1.30335938 1.3190625 -0.66140625 0.669375 0 0 Z " fill="#383838" transform="translate(466,327)"/>
<path d="M0 0 C0.66 0 1.32 0 2 0 C3.0006709 5.96345767 3.0662997 10.28728907 1 16 C-0.06723961 12.53777385 -0.10173486 9.35960734 -0.0625 5.75 C-0.04896484 4.13351562 -0.04896484 4.13351562 -0.03515625 2.484375 C-0.02355469 1.66453125 -0.01195312 0.8446875 0 0 Z " fill="#BDBDBD" transform="translate(512,319)"/>
<path d="M0 0 C7.25806452 5.96774194 7.25806452 5.96774194 9 8 C9 8.66 9 9.32 9 10 C6.525 9.01 6.525 9.01 4 8 C4 7.34 4 6.68 4 6 C3.01 5.67 2.02 5.34 1 5 C0.67 3.35 0.34 1.7 0 0 Z " fill="#5A5A5A" transform="translate(277,311)"/>
<path d="M0 0 C0.66 0 1.32 0 2 0 C3.36639342 1.6396721 4.6949419 3.31110128 6 5 C7.31494512 6.35147138 8.64264858 7.69112542 10 9 C9.67 9.99 9.34 10.98 9 12 C8.443125 11.278125 7.88625 10.55625 7.3125 9.8125 C5.0270024 6.92913577 5.0270024 6.92913577 2.25 4.3125 C0 2 0 2 0 0 Z " fill="#515151" transform="translate(267,294)"/>
<path d="M0 0 C1.32 0.33 2.64 0.66 4 1 C4 1.66 4 2.32 4 3 C4.99 3.33 5.98 3.66 7 4 C7 4.66 7 5.32 7 6 C7.66 6 8.32 6 9 6 C9.33 7.32 9.66 8.64 10 10 C6.27929177 8.75976392 5.37478909 7.04269852 3 4 C2.01 3.34 1.02 2.68 0 2 C0 1.34 0 0.68 0 0 Z " fill="#545454" transform="translate(461,255)"/>
<path d="M0 0 C0.66 0 1.32 0 2 0 C1.72510809 4.03174806 1.46508424 5.56894631 -1.5625 8.375 C-2.366875 8.91125 -3.17125 9.4475 -4 10 C-2.99806563 6.20696275 -2.18975773 3.28463659 0 0 Z " fill="#717171" transform="translate(328,244)"/>
<path d="M0 0 C-1.09758507 0.84198307 -2.20335317 1.67330671 -3.3125 2.5 C-3.92738281 2.9640625 -4.54226563 3.428125 -5.17578125 3.90625 C-7 5 -7 5 -10 5 C-9.8125 3.125 -9.8125 3.125 -9 1 C-5.5637798 -0.95028714 -3.70512932 -1.09810869 0 0 Z " fill="#5B5B5B" transform="translate(364,211)"/>
<path d="M0 0 C4.38259368 1.33912585 6.54093925 3.12225036 9 7 C8.67 7.99 8.34 8.98 8 10 C6.29115995 8.37660195 4.62553283 6.70680947 3 5 C3 4.34 3 3.68 3 3 C2.34 3 1.68 3 1 3 C0.67 2.01 0.34 1.02 0 0 Z " fill="#5F5F5F" transform="translate(286,315)"/>
<path d="M0 0 C0 0.66 0 1.32 0 2 C-1.051875 2.4021875 -1.051875 2.4021875 -2.125 2.8125 C-5.08261853 3.98492916 -5.08261853 3.98492916 -8.125 5.625 C-11 7 -11 7 -14 7 C-13.67 6.01 -13.34 5.02 -13 4 C-10.68925595 3.25881795 -8.35188447 2.59793673 -6 2 C-1.88888889 0 -1.88888889 0 0 0 Z " fill="#979797" transform="translate(376,208)"/>
<path d="M0 0 C-0.99 0.66 -1.98 1.32 -3 2 C-2.01 2.99 -1.02 3.98 0 5 C-2.97 4.505 -2.97 4.505 -6 4 C-6 3.34 -6 2.68 -6 2 C-7.32 2 -8.64 2 -10 2 C-7.79474226 -2.41051548 -4.20111955 -0.70018659 0 0 Z " fill="#B1B1B1" transform="translate(391,391)"/>
<path d="M0 0 C2.3125 0.1875 2.3125 0.1875 5 1 C6.6875 3.5 6.6875 3.5 8 6 C8.66 6.33 9.32 6.66 10 7 C9.67 7.99 9.34 8.98 9 10 C7.5 8.625 7.5 8.625 6 7 C6 6.34 6 5.68 6 5 C5.34 5 4.68 5 4 5 C4 4.34 4 3.68 4 3 C2.68 2.34 1.36 1.68 0 1 C0 0.67 0 0.34 0 0 Z " fill="#585858" transform="translate(337,357)"/>
<path d="M0 0 C0.33 0.99 0.66 1.98 1 3 C0 5 0 5 -2.3125 6.1875 C-5.11989571 7.03624754 -6.301935 6.99928333 -9 6 C-4.25 3 -4.25 3 -2 3 C-2 2.34 -2 1.68 -2 1 C-1.34 0.67 -0.68 0.34 0 0 Z " fill="#585858" transform="translate(457,337)"/>
<path d="M0 0 C2.97 0.495 2.97 0.495 6 1 C5.67 1.99 5.34 2.98 5 4 C6.65 4.33 8.3 4.66 10 5 C9.34 6.32 8.68 7.64 8 9 C6.66368764 7.6905332 5.33102075 6.37734515 4 5.0625 C3.2575 4.33160156 2.515 3.60070312 1.75 2.84765625 C0 1 0 1 0 0 Z " fill="#676767" transform="translate(277,306)"/>
<path d="M0 0 C0.33 0 0.66 0 1 0 C1.17835515 4.54805635 0.99785435 7.8794254 -1 12 C-1.33 12 -1.66 12 -2 12 C-2.28571429 3.42857143 -2.28571429 3.42857143 0 0 Z " fill="#525252" transform="translate(366,282)"/>
<path d="M0 0 C0.66 0 1.32 0 2 0 C1.27991594 4.60853797 -0.31295939 8.67237409 -2 13 C-2.66 13 -3.32 13 -4 13 C-4 11.68 -4 10.36 -4 9 C-3.34 9 -2.68 9 -2 9 C-1.7834375 7.329375 -1.7834375 7.329375 -1.5625 5.625 C-1 2 -1 2 0 0 Z " fill="#4A4A4A" transform="translate(371,268)"/>
<path d="M0 0 C-0.66 0.66 -1.32 1.32 -2 2 C-3.98146126 1.80824568 -5.96505516 1.61027615 -7.9296875 1.2890625 C-10.31186284 0.90781248 -10.31186284 0.90781248 -14 1 C-14 0.34 -14 -0.32 -14 -1 C-8.65998179 -2.33500455 -5.16044765 -1.512545 0 0 Z " fill="#0D0D0D" transform="translate(477,198)"/>
<path d="M0 0 C0.33 0.66 0.66 1.32 1 2 C1.66 2 2.32 2 3 2 C3 2.66 3 3.32 3 4 C3.66 4 4.32 4 5 4 C5.66 6.31 6.32 8.62 7 11 C4.35247996 8.42215154 2.05567935 6.08351902 0 3 C0 2.01 0 1.02 0 0 Z " fill="#4C4C4C" transform="translate(314,348)"/>
<path d="M0 0 C0.66 0.33 1.32 0.66 2 1 C0.02 5.455 0.02 5.455 -2 10 C-2.66 10 -3.32 10 -4 10 C-3.71872579 8.51882199 -3.42466268 7.04006751 -3.125 5.5625 C-2.96257813 4.73878906 -2.80015625 3.91507812 -2.6328125 3.06640625 C-2.42398438 2.38449219 -2.21515625 1.70257813 -2 1 C-1.34 0.67 -0.68 0.34 0 0 Z " fill="#767676" transform="translate(521,331)"/>
<path d="M0 0 C0.99 0.33 1.98 0.66 3 1 C3 2.65 3 4.3 3 6 C3.66 6 4.32 6 5 6 C5.33 7.65 5.66 9.3 6 11 C5.01 11 4.02 11 3 11 C2.67 8.36 2.34 5.72 2 3 C1.34 3 0.68 3 0 3 C0 2.01 0 1.02 0 0 Z " fill="#1D1D1D" transform="translate(306,312)"/>
<path d="M0 0 C0.99 0.33 1.98 0.66 3 1 C3.33 3.31 3.66 5.62 4 8 C3.01 7.67 2.02 7.34 1 7 C-0.1875 3.9375 -0.1875 3.9375 -1 1 C-0.67 0.67 -0.34 0.34 0 0 Z " fill="#F4F4F4" transform="translate(508,239)"/>
<path d="M0 0 C0.66 0.33 1.32 0.66 2 1 C-0.49272439 4.20493136 -2.97681337 7.27913203 -6 10 C-6.66 10 -7.32 10 -8 10 C-6.44303593 6.17836093 -3.96591316 3.81381505 -1 1 C-0.67 0.67 -0.34 0.34 0 0 Z " fill="#565656" transform="translate(338,215)"/>
<path d="M0 0 C0.66 0 1.32 0 2 0 C4.74375671 2.95481492 5 3.77471908 5 8 C3.0625 7.6875 3.0625 7.6875 1 7 C0 4 0 4 0 0 Z " fill="#040404" transform="translate(477,199)"/>
<path d="M0 0 C0.66 0 1.32 0 2 0 C1.67 1.32 1.34 2.64 1 4 C0.34 4 -0.32 4 -1 4 C-1.28875 4.61875 -1.5775 5.2375 -1.875 5.875 C-3 8 -3 8 -5 10 C-4.67 8.02 -4.34 6.04 -4 4 C-3.01 3.67 -2.02 3.34 -1 3 C-0.67 2.01 -0.34 1.02 0 0 Z " fill="#5A5A5A" transform="translate(291,338)"/>
<path d="M0 0 C1.98 0 3.96 0 6 0 C6 0.66 6 1.32 6 2 C4.02 2.33 2.04 2.66 0 3 C0 3.66 0 4.32 0 5 C-2.31 5.33 -4.62 5.66 -7 6 C-6.34 5.34 -5.68 4.68 -5 4 C-3.68 4 -2.36 4 -1 4 C-0.67 2.68 -0.34 1.36 0 0 Z " fill="#BCBCBC" transform="translate(489,271)"/>
<path d="M0 0 C-2.72478774 3.36591427 -6.06856792 4.44226276 -10 6 C-9.1875 3.5625 -9.1875 3.5625 -8 1 C-5.07175348 0.02391783 -3.04386724 -0.08226668 0 0 Z " fill="#4B4B4B" transform="translate(401,245)"/>
<path d="M0 0 C1.8871875 0.0309375 1.8871875 0.0309375 3.8125 0.0625 C3.4825 0.7225 3.1525 1.3825 2.8125 2.0625 C0.52734375 2.4765625 0.52734375 2.4765625 -2.25 2.6875 C-3.16910156 2.76226562 -4.08820313 2.83703125 -5.03515625 2.9140625 C-5.74542969 2.96304688 -6.45570313 3.01203125 -7.1875 3.0625 C-7.1875 2.4025 -7.1875 1.7425 -7.1875 1.0625 C-4.43671116 0.14557039 -2.82801087 -0.04636083 0 0 Z " fill="#3A3A3A" transform="translate(409.1875,241.9375)"/>
<path d="M0 0 C2.4375 1.5625 2.4375 1.5625 5 4 C5.8125 7.75 5.8125 7.75 6 11 C2.95165783 9.47582891 2.37080576 7.03961277 1 4 C0.3125 1.625 0.3125 1.625 0 0 Z " fill="#767676" transform="translate(501,236)"/>
<path d="M0 0 C3.68802044 1.22934015 4.72356973 2.93859378 7 6 C6.01 6.495 6.01 6.495 5 7 C2.375 5.8125 2.375 5.8125 0 4 C0 2.68 0 1.36 0 0 Z " fill="#797979" transform="translate(286,234)"/>
<path d="M0 0 C0.99 0 1.98 0 3 0 C2.4375 1.9375 2.4375 1.9375 1 4 C-2.625 4.75 -2.625 4.75 -6 5 C-6 4.34 -6 3.68 -6 3 C-4.02 2.67 -2.04 2.34 0 2 C0 1.34 0 0.68 0 0 Z " fill="#5A5A5A" transform="translate(365,197)"/>
<path d="M0 0 C-3.3 1.32 -6.6 2.64 -10 4 C-10.33 3.01 -10.66 2.02 -11 1 C-4.5 -1.125 -4.5 -1.125 0 0 Z " fill="#BABABA" transform="translate(456,396)"/>
<path d="M0 0 C1.46184058 0.22860058 2.91955419 0.48370392 4.375 0.75 C5.59316406 0.95882813 5.59316406 0.95882813 6.8359375 1.171875 C9 2 9 2 10.2890625 4.078125 C10.64097656 5.02945312 10.64097656 5.02945312 11 6 C10.01 5.67 9.02 5.34 8 5 C8 4.34 8 3.68 8 3 C6.865625 2.87625 5.73125 2.7525 4.5625 2.625 C3.386875 2.41875 2.21125 2.2125 1 2 C0.67 1.34 0.34 0.68 0 0 Z " fill="#A7A7A7" transform="translate(370,383)"/>
<path d="M0 0 C6.625 -0.125 6.625 -0.125 10 1 C10 1.66 10 2.32 10 3 C6.7 2.67 3.4 2.34 0 2 C0 1.34 0 0.68 0 0 Z " fill="#7A7A7A" transform="translate(507,311)"/>
<path d="M0 0 C0.33 1.32 0.66 2.64 1 4 C-1.375 5.5625 -1.375 5.5625 -4 7 C-4.66 6.67 -5.32 6.34 -6 6 C-2.25 1.125 -2.25 1.125 0 0 Z " fill="#565656" transform="translate(343,228)"/>
<path d="M0 0 C0 0.66 0 1.32 0 2 C-6.625 2.25 -6.625 2.25 -10 0 C-6.7169902 -1.6415049 -3.57454967 -0.51888624 0 0 Z " fill="#C9C9C9" transform="translate(415,397)"/>
<path d="M0 0 C2.31 0 4.62 0 7 0 C7 0.99 7 1.98 7 3 C7.99 3.33 8.98 3.66 10 4 C3.47692308 3.38461538 3.47692308 3.38461538 1.0625 1.4375 C0.711875 0.963125 0.36125 0.48875 0 0 Z " fill="#6B6B6B" transform="translate(362,392)"/>
<path d="M0 0 C1.7074998 1.28062485 3.37373596 2.61767557 5 4 C5 4.66 5 5.32 5 6 C5.99 6.33 6.98 6.66 8 7 C7.67 7.66 7.34 8.32 7 9 C6.01 8.67 5.02 8.34 4 8 C4 7.34 4 6.68 4 6 C3.34 6 2.68 6 2 6 C1.34 4.02 0.68 2.04 0 0 Z " fill="#454545" transform="translate(372,324)"/>
<path d="M0 0 C0.33 1.32 0.66 2.64 1 4 C-2.75 7 -2.75 7 -5 7 C-5.33 7.66 -5.66 8.32 -6 9 C-6 6 -6 6 -3.5625 3.375 C-2.716875 2.59125 -1.87125 1.8075 -1 1 C-0.67 0.67 -0.34 0.34 0 0 Z " fill="#535353" transform="translate(336,235)"/>
<path d="M0 0 C3.82946843 1.45255699 5.12050295 3.42895561 7 7 C5.1875 6.8125 5.1875 6.8125 3 6 C0 1.71428571 0 1.71428571 0 0 Z " fill="#515151" transform="translate(274,221)"/>
<path d="M0 0 C1.32 0 2.64 0 4 0 C4 0.66 4 1.32 4 2 C4.66 2.33 5.32 2.66 6 3 C5.67 3.66 5.34 4.32 5 5 C3.68 4.67 2.36 4.34 1 4 C0.67 2.68 0.34 1.36 0 0 Z " fill="#E9E9E9" transform="translate(332,367)"/>
<path d="M0 0 C2.4375 0.625 2.4375 0.625 5 2 C5.8125 5.125 5.8125 5.125 6 8 C4.62437146 6.71034824 3.29233607 5.37310707 2 4 C2 3.34 2 2.68 2 2 C1.34 2 0.68 2 0 2 C0 1.34 0 0.68 0 0 Z " fill="#5B5B5B" transform="translate(299,329)"/>
<path d="M0 0 C0.33 0 0.66 0 1 0 C0.67 2.97 0.34 5.94 0 9 C-1.32 8.34 -2.64 7.68 -4 7 C-3.67 6.01 -3.34 5.02 -3 4 C-2.34 4 -1.68 4 -1 4 C-0.67 2.68 -0.34 1.36 0 0 Z " fill="#858585" transform="translate(518,321)"/>
<path d="M0 0 C1.32 0 2.64 0 4 0 C3.67 1.98 3.34 3.96 3 6 C2.01 6 1.02 6 0 6 C0 4.02 0 2.04 0 0 Z " fill="#E4E4E4" transform="translate(514,319)"/>
<path d="M0 0 C2.375 0.1875 2.375 0.1875 5 1 C6.3125 3.5625 6.3125 3.5625 7 6 C4.50638429 4.79618552 2.31856917 3.54571278 0 2 C0 1.34 0 0.68 0 0 Z " fill="#6B6B6B" transform="translate(311,255)"/>
<path d="M0 0 C0.66 0 1.32 0 2 0 C2.28875 0.61875 2.5775 1.2375 2.875 1.875 C3.93720042 4.13325765 3.93720042 4.13325765 6 6 C4.35 6.66 2.7 7.32 1 8 C0.67 5.36 0.34 2.72 0 0 Z " fill="#EDEDED" transform="translate(510,253)"/>
<path d="M0 0 C2.9375 0.75 2.9375 0.75 6 2 C6.875 4.125 6.875 4.125 7 6 C4.12549673 4.71142957 2.07476576 3.38598062 0 1 C0 0.67 0 0.34 0 0 Z " fill="#6F6F6F" transform="translate(348,367)"/>
<path d="M0 0 C0.66 0 1.32 0 2 0 C2 0.66 2 1.32 2 2 C3.134375 2.28875 4.26875 2.5775 5.4375 2.875 C6.613125 3.24625 7.78875 3.6175 9 4 C9.33 4.66 9.66 5.32 10 6 C6.38238619 5.67112602 4.44334967 5.37334709 1.625 3 C0 1 0 1 0 0 Z " fill="#929292" transform="translate(338,366)"/>
<path d="M0 0 C3.3 0.99 6.6 1.98 10 3 C10 3.66 10 4.32 10 5 C6.28111761 4.49287967 3.26545761 3.88391785 0 2 C0 1.34 0 0.68 0 0 Z " fill="#9D9D9D" transform="translate(386,341)"/>
<path d="M0 0 C2.40072955 2.88087546 4.47291037 5.56404834 6 9 C5.34 9 4.68 9 4 9 C4 8.34 4 7.68 4 7 C3.01 6.67 2.02 6.34 1 6 C0.67 4.02 0.34 2.04 0 0 Z " fill="#3A3A3A" transform="translate(318,337)"/>
<path d="M0 0 C2 0 2 0 4.125 1.875 C6 4 6 4 6 6 C4.35 5.67 2.7 5.34 1 5 C0.67 3.35 0.34 1.7 0 0 Z " fill="#505050" transform="translate(271,305)"/>
<path d="M0 0 C0.66 0.33 1.32 0.66 2 1 C1.67 2.32 1.34 3.64 1 5 C0.34 5 -0.32 5 -1 5 C-1 6.65 -1 8.3 -1 10 C-1.99 10.495 -1.99 10.495 -3 11 C-2.67 8.03 -2.34 5.06 -2 2 C-1.34 2 -0.68 2 0 2 C0 1.34 0 0.68 0 0 Z " fill="#CDCDCD" transform="translate(368,272)"/>
<path d="M0 0 C0.33 0.66 0.66 1.32 1 2 C0.34 2 -0.32 2 -1 2 C-1.33 3.65 -1.66 5.3 -2 7 C-3.32 7.33 -4.64 7.66 -6 8 C-6 7.01 -6 6.02 -6 5 C-4.68 4.67 -3.36 4.34 -2 4 C-2 3.01 -2 2.02 -2 1 C-1.34 0.67 -0.68 0.34 0 0 Z " fill="#E0E0E0" transform="translate(343,270)"/>
<path d="M0 0 C0.66 0.99 1.32 1.98 2 3 C-0.31 4.32 -2.62 5.64 -5 7 C-5.33 6.01 -5.66 5.02 -6 4 C-4.35 3.67 -2.7 3.34 -1 3 C-0.67 2.01 -0.34 1.02 0 0 Z " fill="#D6D6D6" transform="translate(350,224)"/>
<path d="M0 0 C0.66 0.33 1.32 0.66 2 1 C0.9024777 3.99324263 0.32317108 4.84610901 -2.625 6.25 C-3.40875 6.4975 -4.1925 6.745 -5 7 C-3.88820837 3.66462511 -2.52588702 2.36292656 0 0 Z " fill="#D4D4D4" transform="translate(334,221)"/>
<path d="M0 0 C2.00720923 0.28674418 4.0085944 0.61866701 6 1 C5.67 2.32 5.34 3.64 5 5 C4.01 4.67 3.02 4.34 2 4 C2 3.34 2 2.68 2 2 C1.01 1.67 0.02 1.34 -1 1 C-0.67 0.67 -0.34 0.34 0 0 Z " fill="#2A2A2A" transform="translate(467,198)"/>
<path d="M0 0 C-0.33 0.66 -0.66 1.32 -1 2 C-3.06640625 2.4140625 -3.06640625 2.4140625 -5.5625 2.625 C-6.38878906 2.69976562 -7.21507812 2.77453125 -8.06640625 2.8515625 C-9.02353516 2.92503906 -9.02353516 2.92503906 -10 3 C-6.93361469 -0.59474709 -4.63005752 -0.26207873 0 0 Z " fill="#434343" transform="translate(399,197)"/>
<path d="M0 0 C1.32 0 2.64 0 4 0 C3.67 0.99 3.34 1.98 3 3 C0.69 3.33 -1.62 3.66 -4 4 C-3.67 3.34 -3.34 2.68 -3 2 C-2.01 2 -1.02 2 0 2 C0 1.34 0 0.68 0 0 Z " fill="#838383" transform="translate(442,355)"/>
<path d="M0 0 C4.455 0.99 4.455 0.99 9 2 C9 2.33 9 2.66 9 3 C6.36 3 3.72 3 1 3 C0.67 2.01 0.34 1.02 0 0 Z " fill="#696969" transform="translate(396,346)"/>
<path d="M0 0 C1 3 1 3 0 6 C-0.66 6 -1.32 6 -2 6 C-2.33 7.65 -2.66 9.3 -3 11 C-3.75 9.4375 -3.75 9.4375 -4 7 C-2.86915563 4.49713591 -1.47860484 2.32992278 0 0 Z " fill="#323232" transform="translate(346,276)"/>
<path d="M0 0 C0.99 0.33 1.98 0.66 3 1 C3 1.99 3 2.98 3 4 C1.68 4.33 0.36 4.66 -1 5 C-1 4.34 -1 3.68 -1 3 C-1.66 2.67 -2.32 2.34 -3 2 C-2.01 2 -1.02 2 0 2 C0 1.34 0 0.68 0 0 Z " fill="#3C3C3C" transform="translate(367,207)"/>
<path d="M0 0 C0.33 0.99 0.66 1.98 1 3 C-0.98 3.66 -2.96 4.32 -5 5 C-4.67 3.68 -4.34 2.36 -4 1 C-2.68 0.67 -1.36 0.34 0 0 Z " fill="#D4D4D4" transform="translate(444,397)"/>
<path d="M0 0 C2.375 0.6875 2.375 0.6875 5 2 C6.3125 4.625 6.3125 4.625 7 7 C3.30046461 5.76682154 2.25038686 4.10398187 0 1 C0 0.67 0 0.34 0 0 Z " fill="#535353" transform="translate(327,366)"/>
<path d="M0 0 C0.33 0.66 0.66 1.32 1 2 C1.99 2.33 2.98 2.66 4 3 C4 3.66 4 4.32 4 5 C4.99 5.33 5.98 5.66 7 6 C6.67 6.99 6.34 7.98 6 9 C5.38125 8.195625 4.7625 7.39125 4.125 6.5625 C2.25835959 3.96125481 2.25835959 3.96125481 0 3 C0 2.01 0 1.02 0 0 Z " fill="#4C4C4C" transform="translate(330,348)"/>
<path d="M0 0 C0.99 0.33 1.98 0.66 3 1 C3 1.66 3 2.32 3 3 C3.66 3 4.32 3 5 3 C5.33 4.32 5.66 5.64 6 7 C5.01 6.67 4.02 6.34 3 6 C3 5.34 3 4.68 3 4 C2.34 4 1.68 4 1 4 C0.67 2.68 0.34 1.36 0 0 Z " fill="#5A5A5A" transform="translate(308,341)"/>
<path d="M0 0 C0.66 0.33 1.32 0.66 2 1 C1.3125 2.9375 1.3125 2.9375 0 5 C-2.625 5.75 -2.625 5.75 -5 6 C-3.35 4.02 -1.7 2.04 0 0 Z " fill="#373737" transform="translate(349,222)"/>
</svg>
